<svg xmlns="http://www.w3.org/2000/svg" viewBox="0 0 126 126"><defs><style>.cls-1,.cls-2{fill:#fff}.cls-1{fill-rule:evenodd}</style></defs><path class="cls-1" d="M29 104V93h68v11l-13 6-21-10-21 10Z"/><path class="cls-2" d="M38 80h50v9H38zM58 71h10v5H58z"/><path d="M5 111.955 22 105l20 10 21-10 21 10 20-10 17 7.192V121H5v-9.045Z" style="fill:#679552;fill-rule:evenodd"/><path class="cls-1" d="m71.037 50.534 1.915 1.885 4.468-4.4 3.191 3.142-10.85 10.683L66.57 58.7l4.468-4.4-1.915-1.885-3.191 2.513h-5.407l-3.143-2.514L55.5 54.3l4.4 4.4-3.143 3.143-10.689-10.685 3.143-3.143 4.4 4.4L55.5 50.53 44.182 39.844v-13.2s2.615.019 4.4 0c-.289-14.5 13.829-15.086 13.829-15.086l.963-.017v.026l.643.011s14.335.581 14.041 15.08c1.812.019 4.468 0 4.468 0v13.195Zm-2.655-1.262a1.571 1.571 0 1 0-1.571-1.572 1.571 1.571 0 0 0 1.571 1.573Zm0-5.657a1.571 1.571 0 1 0-1.571-1.571 1.571 1.571 0 0 0 1.571 1.571Zm-5.028 8.8a1.571 1.571 0 1 0-1.572-1.572 1.571 1.571 0 0 0 1.572 1.572Zm0-5.657a1.571 1.571 0 1 0-1.572-1.571 1.571 1.571 0 0 0 1.572 1.571Zm0-6.286a1.571 1.571 0 1 0-1.572-1.572 1.571 1.571 0 0 0 1.572 1.573Zm-5.029 8.8a1.571 1.571 0 1 0-1.571-1.572 1.571 1.571 0 0 0 1.571 1.573Zm0-5.657a1.571 1.571 0 1 0-1.571-1.571 1.571 1.571 0 0 0 1.571 1.571Zm16.657-16.971H51.725v8.8l5.029 3.771 5.657-4.4h1.615l5.8 4.4 5.156-3.771v-8.8Z"/></svg>
