<svg xmlns="http://www.w3.org/2000/svg" viewBox="0 0 126 126">
    <path fill="#53bcda"
        d="M64.969 95.997v0.472h-1.969v1.969h-2.495a3.938 3.938 0 0 1-3.411 1.968h-13.781a3.938 3.938 0 0 1-3.938-3.937v-1.969c0-0.717 0.192-1.389 0.527-1.969H33.469l-0.985-1.968h-2.953l-1.969 3.937h-13.781l-3.445-1.969h-2.077a0.492 0.492 0 0 1-0.477-0.372l-1.756-7.025a0.492 0.492 0 0 1 0.358-0.597l1.221-0.306a0.492 0.492 0 0 1 0.467 0.13l0.295 0.295 3.248-1.623a3.938 3.938 0 0 1 1.458-0.405L18.703 82.195l2.953-1.968v-1.477h5.907v-1.969l3.937-1.968h7.875v3.937h1.969v-5.906h1.969v5.906h1.968v-1.969h5.971l2.273-3.937 3.41 1.969-2.273 3.937H57.094v1.969h1.968v-3.938l7.875-3.937h1.969v5.906h-1.969v-3.937l-5.414 3.445v2.461h44.789v-1.969h11.813v11.813h1.969v-1.969h1.968v3.937l-3.937 3.938h-1.969v-1.969l-1.969-1.969h-7.875v-0.177c-1.337 0.585-4.421 1.674-8.859 1.674-7.875 0-8.859-1.969-16.734-1.968v0.471h-7.875v-0.471c-2.205 0-2.866 0.882-3.528 1.763-0.815 1.087-1.63 2.174-4.347 2.174m41.343-4.773V90.563h-25.593v0.471c7.875 0 8.859 1.969 16.734 1.969 4.854 0 8.001-1.357 8.859-1.779m-33.468-0.19V90.563h-15.258v0.03a3.938 3.938 0 0 1 2.919 1.938h2.495v1.969h1.969v0.472c2.205 0 2.866-0.882 3.527-1.764 0.815-1.087 1.63-2.174 4.348-2.174m25.593-4.409h7.875v-1.969h-7.875z m-39.374-1.969h-1.969v1.969h1.969z m2.46 1.969h5.415v-1.969h-5.415z m7.383 0h27.563v-1.969h-27.563z m-47.25-0.211V85.148l-12.304 2.954v2.461l4.429 1.968h11.813l1.476-3.937h-1.476l-1.969-1.969-8.695 1.656a2.018 2.018 0 0 0-1.641 1.983v0.299h-0.492v-0.425a2.461 2.461 0 0 1 2-2.417z" />
    <path fill="#ffe"
        d="M58.57 64.477l-10.828-10.829v-10.828l8.86-8.859v-13.781l12.304 12.304v13.289l3.938-9.843 4.922 16.242-12.305 12.305v-7.383l3.445-3.446-5.414-5.414v-6.89l-10.336 10.336 5.414 5.414z" />
</svg>