<svg xmlns="http://www.w3.org/2000/svg" viewBox="0 0 126 126">
<path fill="#49adc9" d="M64.969 95.997v.472H63v1.969h-2.495a3.94 3.94 0 0 1-3.411 1.968H43.313a3.94 3.94 0 0 1-3.938-3.937V94.5c0-.717.192-1.389.527-1.969h-6.433l-.985-1.968h-2.953L27.562 94.5H13.781l-3.445-1.969H8.259a.49.49 0 0 1-.477-.372l-1.756-7.025a.49.49 0 0 1 .358-.597l1.221-.306a.49.49 0 0 1 .467.13l.295.295 3.248-1.623a3.9 3.9 0 0 1 1.458-.405l5.63-.433 2.953-1.968V78.75h5.907v-1.969l3.937-1.968h7.875v3.937h1.969v-5.906h1.969v5.906h1.968v-1.969h5.971l2.273-3.937 3.41 1.969-2.273 3.937h2.432v1.969h1.968v-3.938l7.875-3.937h1.969v5.906h-1.969v-3.937l-5.414 3.445v2.461h44.789V78.75h11.813v11.813h1.969v-1.969h1.968v3.937l-3.937 3.938h-1.969V94.5l-1.969-1.969h-7.875v-.177c-1.337.585-4.421 1.674-8.859 1.674-7.875 0-8.859-1.969-16.734-1.968v.471h-7.875v-.471c-2.205 0-2.866.882-3.528 1.763-.815 1.087-1.63 2.174-4.347 2.174m41.343-4.773v-.661H80.719v.471c7.875 0 8.859 1.969 16.734 1.969 4.854 0 8.001-1.357 8.859-1.779m-33.468-.19v-.471H57.586v.03a3.94 3.94 0 0 1 2.919 1.938H63V94.5h1.969v.472c2.205 0 2.866-.882 3.527-1.764.815-1.087 1.63-2.174 4.348-2.174m25.593-4.409h7.875v-1.969h-7.875zm-39.374-1.969h-1.969v1.969h1.969zm2.46 1.969h5.415v-1.969h-5.415zm7.383 0h27.563v-1.969H68.906zm-47.25-.211v-1.266L9.352 88.102v2.461l4.429 1.968h11.813l1.476-3.937h-1.476l-1.969-1.969-8.695 1.656a2.02 2.02 0 0 0-1.641 1.983v.299h-.492v-.425a2.46 2.46 0 0 1 2-2.417z"/>
<path fill="#fff" d="M58.57 64.477 47.742 53.648V42.82l8.86-8.859V20.18l12.304 12.304v13.289l3.938-9.843 4.922 16.242-12.305 12.305v-7.383l3.445-3.446-5.414-5.414v-6.89L53.156 51.68l5.414 5.414z"/>
</svg>