<svg xmlns="http://www.w3.org/2000/svg" viewBox="0 0 126 126" fill="#fff">
    <path fill="#679552"
        d="M53.999 91.999h38l12 14H23.999l6.857-8H53.999z m-5.783-70H53.999c20.973 0 38 17.027 38 38v10h-43.783l8-24zM47.999 73.999h36v14h-30v-5.657l-6-6z m23.899-52H111.999v14h-23.538a42.2 42.2 0 0 0-16.563-14" />
    <path
        d="M35.379 29.863L38 22h6l8 24-8 24v8l6 6v10h-18v-10l6-6v-8l-0.641-1.923 8.319-8.319-3.871-3.871 3.79-3.789v-13.534h-2.704c-0.978-3.791-3.765-6.983-7.514-8.701m-12.331 28.54L15.5 50.855v-9.29h2.322c0-5.554 5.03-10.065 11.227-10.065 6.196 0 11.226 4.51 11.225 10.064h2.323v9.291l-7.742 7.742 1.548 1.548 2.71-2.71 2.323 2.323L33.694 67.5l-2.323-2.322 3.096-3.097-1.548-1.548-0.586 0.586a4.645 4.645 0 0 1-6.569 0l-0.78-0.78-1.742 1.742 3.096 3.097-2.322 2.322-7.742-7.742 2.323-2.322 2.709 2.709z m14.516-16.838h-17.032v7.355l3.097 2.322 5.419-3.484 5.419 3.484 3.097-2.322z m-8.516 12.387a1.161 1.161 0 1 0 0 2.321 1.161 1.161 0 0 0 0-2.321m0 4.258a1.162 1.162 0 0 0 0 2.323 1.161 1.161 0 0 0 0-2.323m3.484-1.936a1.162 1.162 0 0 0 0 2.323 1.162 1.162 0 0 0 0-2.323m0-4.258a1.161 1.161 0 1 0 1.161 1.162 1.162 1.162 0 0 0-1.161-1.162m-6.968 0a1.161 1.161 0 1 0 0 2.322 1.161 1.161 0 0 0 0-2.322m0 4.258a1.162 1.162 0 0 0 0 2.323 1.162 1.162 0 0 0 0-2.323m3.484-6.58a1.161 1.161 0 1 0 0 2.321 1.161 1.161 0 0 0 0-2.321" />
</svg>