<svg xmlns="http://www.w3.org/2000/svg" viewBox="0 0 126 126" fill="none">
<path fill="#679552" d="M90 33s-6-8.3-18-15h43v15zm2 24v14H44s9-22.4 9-28-9-25-9-25h9s39 0 39 39m-7 35H50v-8l-6-6v-2h41zm-47 9h12v-5h43l13 16H18l9-11z"/>
<path fill="#fff" d="M40 18s9 19.4 9 25-9 26-9 26v11l6 6v11H27V86l6-6V69s-.187-.424-.507-1.167L41 59l-3.5-3 4-3.5V37H38c0-3.148-1.858-8.772-8.498-11.026C31.373 21.509 33 18 33 18z"/>
<path fill="#fff" d="m29 59.225 1.475 1.462 3.541-3.412 2.46 2.438L28.015 68l-2.459-2.437L29 62.15l-1.475-1.462-2.509 1.95h-4.23l-2.458-1.95-1.476 1.462 3.443 3.413L17.836 68l-8.36-8.288 2.458-2.437 3.443 3.413 1.475-1.463L8 50.937V40.7h3.443C11.197 29.487 22.263 29 22.263 29h1.229s11.311.488 11.065 11.7H38v10.237zm-2.066-.975c.244 0 .481-.072.683-.205a1.22 1.22 0 0 0 .523-1.251 1.2 1.2 0 0 0-.336-.624 1.23 1.23 0 0 0-1.34-.265 1.23 1.23 0 0 0-.552.45 1.21 1.21 0 0 0 .153 1.538c.23.229.543.357.87.357m0-4.388c.244 0 .481-.071.683-.205a1.22 1.22 0 0 0 .523-1.251 1.2 1.2 0 0 0-.336-.624 1.23 1.23 0 0 0-1.34-.264 1.23 1.23 0 0 0-.552.449 1.21 1.21 0 0 0 .153 1.538c.23.23.543.357.87.357M23 60.688c.243 0 .48-.071.683-.205a1.22 1.22 0 0 0 .523-1.251 1.2 1.2 0 0 0-.337-.624 1.23 1.23 0 0 0-1.34-.264 1.23 1.23 0 0 0-.551.449 1.21 1.21 0 0 0 .551 1.803c.15.061.31.093.471.093m0-4.387c.243 0 .48-.072.683-.205a1.22 1.22 0 0 0 .523-1.251 1.2 1.2 0 0 0-.337-.625 1.23 1.23 0 0 0-1.34-.264 1.23 1.23 0 0 0-.551.45 1.21 1.21 0 0 0 .153 1.538c.23.229.543.357.869.357m0-4.875c.243 0 .48-.072.683-.205a1.22 1.22 0 0 0 .523-1.251 1.2 1.2 0 0 0-.337-.625 1.23 1.23 0 0 0-1.34-.264 1.212 1.212 0 0 0-.399 1.988c.231.229.544.357.87.357m-3.934 6.825a1.222 1.222 0 0 0 1.136-.752 1.21 1.21 0 0 0-.267-1.329 1.23 1.23 0 0 0-1.34-.264 1.23 1.23 0 0 0-.552.45 1.21 1.21 0 0 0 .153 1.538c.23.229.543.357.87.357m0-4.388a1.222 1.222 0 0 0 1.136-.752 1.21 1.21 0 0 0-.267-1.328 1.23 1.23 0 0 0-1.34-.264 1.23 1.23 0 0 0-.552.449 1.21 1.21 0 0 0 .153 1.538c.23.23.543.357.87.357M32.098 40.7H13.902v6.825l3.934 2.925 4.426-3.413h1.279l4.525 3.413 4.032-2.925z"/>
</svg>