<svg xmlns="http://www.w3.org/2000/svg" viewBox="0 0 126 126" fill-rule="evenodd"><path d="M98 112 82 95H71.8L66 83l-5 4-18-17v-3.92L59 60l6.769-17.814L68 42l18 18-4 6 13 6v11l17 17 1 14zM79 32V19l-3.131-3.392L78 10l17 10v28zm-35-3 10 11.667V55l-13 1-12-11-2 10H16l-7-8 29-8 9-29 7 7v10zM19 79h12l16 16H19L9 79l7.069-2.686z" fill="#be4030"/><path d="m112 75-1.19-.476.19.476-.667-.667L87 65l4-5-21-21H58l-8-8 15.111-1.889L65 29l2-16 8 8v12l21 21 5-4 9.333 23.333zm-37.476 36.81L75 113l-1.667-1.667L50 102l4-5-21-21H21l-8-8 16-2 .143.143L30 61l1-10 8 8v12l21 21 5-4 9.333 23.333L75 112z" fill="#fff"/></svg>