<svg xmlns="http://www.w3.org/2000/svg" viewBox="0 0 126 126"><g fill-rule="evenodd"><path d="M89.28 113.34c-7.359 0-6.5-7.317-6.5-7.317h13.004s.856 7.317-6.504 7.317zM30.746 88.951h5.691l8.943-8.943h25.2l8.13 8.943h17.074v13.007H30.746V88.951zM52.7 75.943H37.249V67H52.7l2.439 2.439h14.63V73.5H55.135zm-8.943 30.08s.855 7.317-6.5 7.317-6.5-7.317-6.5-7.317h12.996z" fill="#49adc9"/><path d="M84.867 48.56h-7.144L74.547 51H42V37.989h32.547l3.175 2.44h7.145l7.144 4.066Z" fill="#fff"/></g><path d="M33 38h5v13h-5z" fill="#fff"/><path d="M84.867 31.56h-7.144L74.547 34H42V20.989h32.547l3.175 2.44h7.145l7.144 4.066Z" fill-rule="evenodd" fill="#fff"/><path d="M33 21h5v13h-5z" fill="#fff"/></svg>
