<svg xmlns="http://www.w3.org/2000/svg" viewBox="0 0 126 126" fill="none"><path fill="#49ADC9" d="M111.522 90.284h2.175V84.43l-10.203-3.848H68.199v-4.015h8.698v-1.003H105v.67h7.694v-5.02h-7.359l-.669 1.005H76.897s.168-1.34-.669-1.34h-18.4l-6.355-3.344H17.349l-2.342 2.174v10.538c-.023 0-2.007.002-2.007.335v6.69l2.676 1.673c.334.67 1.84.614 2.008.335L30.06 104h68.582l12.879-13.716ZM30.73 101.658l-7.694-9.367h4.684l5.687 6.69h62.225l6.356-6.69h4.684l-8.698 9.367H30.73Z"/><path fill="#fff" d="M12 37h23.463l1.805-1.8h6.317L49 32.5l-5.415-2.7h-6.317L35.463 28H12v9ZM12 25h23.463l1.805-1.8h6.317L49 20.5l-5.415-2.7h-6.317L35.463 16H12v9ZM79.388 22.371h-2.676v8.698h2.676v-8.698Zm32.116.669c-.535-.535-1.115-.669-1.338-.669h-28.77l-.002 4.35v4.348h28.772c.223 0 .803-.134 1.338-.669l3.68-3.68-3.68-3.68Z"/></svg>