<svg xmlns="http://www.w3.org/2000/svg" viewBox="0 0 126 126" fill="none"><path fill="#fff" d="M9 46.734 15.935 54h39.13L62 46.734h-6.935v-6.78l-6.934 5.812-.495-11.625-8.421 7.75L35.5 23l-3.715 18.89-8.916-7.75v11.626l-6.934-5.813v6.781H9Z"/><path fill="#fff" fill-rule="evenodd" d="M81.302 38.505 108 11a27.376 27.376 0 0 1-8.1 18.021 1431.874 1431.874 0 0 1-14.302 13.753l-4.296-4.27Zm-7.15 6.64-3.338-3.32v-.95l3.814-3.793h.953l10.965 11.38v.95l-3.813 3.793h-.954l-3.337-3.314L71.29 57 67 52.258l7.151-7.114ZM110.683 45.094l3.415-3.333v-.952L110.195 37h-.975L98 48.425v.952l3.902 3.81h.976l3.415-3.328L113.61 57l4.39-4.76-7.317-7.146Z" clip-rule="evenodd"/><path fill="#fff" fill-rule="evenodd" d="M98.82 43s-1.62-1.584-4.27-4.205l4.344-4.466L103 38.702 98.82 43ZM87.945 32.216l4.563-4.693 4.032 4.294-4.558 4.427c-1.349-1.339-2.694-2.68-4.037-4.026v-.002ZM85.4 29.662l-.51-.514C80.161 24.314 77.35 17.846 77 11l13.171 14.03-4.771 4.632Z" clip-rule="evenodd"/><path fill="#49ADC9" d="M18.494 77.797c-.395 0-.494.329-.494.493v5.913c0 .394.33.493.494.493h22.242c.395 0 .494-.329.494-.493h43.494c1.78 1.182 3.707 1.807 4.448 1.97h3.46v8.378h1.977c0-.986.822-2.551 3.391-2.551 3.347 0 4.023 1.565 4.023 2.55H104V64.494c0-.394-.33-.493-.494-.493h-10.38c-.395 0-.494.329-.494.493v11.333h-3.46c-1.581.394-3.624 1.807-4.448 2.464H41.23c0-.394-.33-.493-.494-.493H18.494Z"/><path fill="#49ADC9" d="M96.092 94.55c0-1.182 1.249-1.477 1.908-1.477h.563c1.582 0 1.977.985 1.977 1.478h-4.448ZM92.632 97.014V96H104v1.014c0 .789-.659.986-.989.986h-9.39c-.791 0-.989-.657-.989-.986Z"/></svg>