<svg xmlns="http://www.w3.org/2000/svg" viewBox="0 0 126 126" fill="none"><path fill="#49ADC9" d="M64.532 76.963H10.798V76H6.48c-.384 0-.48.321-.48.481v10.593h4.798l.48-.963h1.918v.482c3.071.577 4.319.24 4.558 0h9.836c2.686.577 4.957.24 5.757 0v-.482h31.185v1.445L57.815 99.11l.48.963c1.535.77 2.559 1.605 2.878 1.926h1.44v-.481l5.757-11.075h1.44v-.481h2.398c-1.2-1.926-.24-2.809.96-2.889v-.481h1.439v-.482h3.838v7.222c0 .578.64.883.96.963h1.919c.575 0 .88-.642.96-.963v-7.222h1.918c.768 0 1.92.642 1.92.963H89V76h-2.879v.481h-21.11c-.383 0-.48.322-.48.482Z"/><path fill="#49ADC9" d="M120.202 81.51c-.762-3.237-5.714-6.11-8.095-7.142-6.666-.762-11.983-.317-13.808 0-1.524 0-3.65-1.11-4.524-1.904-1.142.952-1.27 1.984-1.19 2.38-.762 1.143-2.856 2.064-3.809 2.382v8.57c.953.317 3.047 1.238 3.809 2.38-.08.397.048 1.43 1.19 2.382.873-.794 3-1.905 4.524-1.905 1.825.318 7.142.762 13.808 0 2.381-1.031 7.333-3.904 8.095-7.142Z"/><path fill="#fff" d="M13 37.078 18.234 42h29.532L53 37.078h-5.234v-4.594l-5.233 3.938-.374-7.875-6.355 5.25L33 21l-2.804 12.797-6.729-5.25v7.875l-5.233-3.938v4.594H13ZM94.448 42.51c-4.812 0-16.233-4.063-16.233-4.063h-4.058l-2.319 4.063h-8.696l2.319-5.224h-2.899l-1.739 5.224h-4.638l2.899-6.965v-.58L56.185 28h4.638l1.74 5.224h2.898L63.142 28h8.696l2.32 4.063h4.057S89.636 28 94.448 28C99.26 28 113 32.063 113 32.063v6.384S99.26 42.51 94.448 42.51Z"/></svg>