<svg xmlns="http://www.w3.org/2000/svg" viewBox="0 0 126 126" fill="none"><path fill="#49ADC9" d="M62.185 92.516h9.682c4.066.58 7.502.242 8.712 0 .323-.242 1.357-.775 2.906-.968 1.549-.194 2.581-.726 2.904-.968h21.783l1.452.968h10.65v-7.262h-10.65l-1.452.969h-23.72v-1.452h2.905l.484-.485V79.93h.968v-2.905h-2.904l-1.452-1.936H83v.484h-.967l2.662-2.42c1.371 0 4.114-.63 4.114-3.146 0-2.517-1.936-3.148-2.904-3.148-3.389.969-2.905 3.148-2.905 4.116 0 .774-.968 1.452-1.452 1.694-1.355.194-2.5 1.694-2.904 2.42H59.281v.484h-1.937c-.58 0-1.21-.968-1.452-1.452h-.484v-.484h-.484v-.484h-.484v.484H34.109v-.484h-2.421v.484c-.58.58-1.855.888-2.42.969h-.484v-.485H27.33v.485h-.484c-.774 0-1.613.483-1.935.725-5.083 2.662-12.586 4.841-15.975 5.567-2.71.581-3.066 1.532-2.904 1.936v6.777c0 1.55.645 1.937.967 1.937h21.784L30.72 93h31.465v-.484Zm-51.796-3.872c-.387 0-.484-.324-.484-.485v-.968c2.904-1.936 6.696-2.743 8.23-2.905v-.483h1.936c.774 0 .726.725 1.21.968.484.242.484.452.242-.258s1.003-1.679 1.936-1.679h2.42v5.81H10.39Z"/><path fill="#fff" fill-rule="evenodd" d="M38 14h6.711v1.998h14.094v15.315H44.71v1.997H38V14Zm24.831 1.998v15.315H79.61s7.383.032 7.383-7.325v-.666s.55-7.324-7.383-7.324H62.831ZM38 37h6.711v1.998h14.094v15.315H44.71v1.997H38V37Zm24.831 1.998v15.315H79.61s7.383.032 7.383-7.325v-.666s.55-7.324-7.383-7.324H62.831Z" clip-rule="evenodd"/></svg>