<svg xmlns="http://www.w3.org/2000/svg" viewBox="0 0 126 126"><g fill="#fff"><path d="M29 97V86h68v11l-13 6-21-10-21 10z" fill-rule="evenodd"/><path d="M38 73h50v9H38zm20-9h10v5H58z"/></g><g fill-rule="evenodd"><path d="M5 104.955 22 98l20 10 21-10 21 10 20-10 17 7.192V121H5v-16.045Z" fill="#679552"/><path d="m34.262 28.536 7.438-7.442h21.4l28.839 12.093V44.35H34.262V28.536zM63.1 17.372H41.7V9h21.4l.93 1.861h19.536v4.651H64.031zM38.914 52.723c-4.744 0-4.651-4.651-4.651-4.651h9.3s.094 4.651-4.649 4.651zm12.093 0c-4.744 0-4.651-4.651-4.651-4.651h9.3s.095 4.651-4.649 4.651zm12.093 0c-4.744 0-4.651-4.651-4.651-4.651h9.3s.095 4.651-4.649 4.651zm12.093 0c-4.744 0-4.651-4.651-4.651-4.651h9.3s.096 4.651-4.648 4.651zm12.094 0c-4.744 0-4.651-4.651-4.651-4.651h9.3s.095 4.651-4.649 4.651z" fill="#679552"/></g></svg>
