<svg xmlns="http://www.w3.org/2000/svg" viewBox="0 0 126 126" fill="#fff">
	<g fill="#49adc9">
		<path d="M79 41h9v10h-9z"/>
		<path d="M75 41H64l-10-9v14l11 4v48h39l9-9V32l-10 9H92v14H75V41Z"/>
		<path d="m54 27 11 10h37l11-10V16H54v11Z"/>
	</g>
	<path d="M8 99s24 16 26 16 26-16 26-16V53s-22-6-26-6-26 6-26 6v46Zm34-37a3.5 3.5 0 0 1 2-1h2s2 0 2 1v2a3.6 3.6 0 0 1-2 1h-2s-2 0-2-1v-2Zm0 6h6v21s-1 4-3 4-3-4-3-4V68Zm-11-6a3.5 3.5 0 0 1 2-1h2s2 0 2 1v2a3.6 3.6 0 0 1-2 1h-2s-2 0-2-1v-2Zm0 6h6v21s-1 4-3 4-3-4-3-4V68Zm-11-6a3.5 3.5 0 0 1 2-1h2s2 0 2 1v2a3.6 3.6 0 0 1-2 1h-2s-2 0-2-1v-2Zm0 6h6v21s-1 4-3 4-3-4-3-4V68Z"/>
</svg>