<svg xmlns="http://www.w3.org/2000/svg" viewBox="0 0 126 126" fill-rule="evenodd">
  <path
    d="m29 69 8 .012A.98.98 0 0 0 38 70h1a.967.967 0 0 0 1-1h3a.977.977 0 0 0 1 1h1a.951.951 0 0 0 1-1s-.258-1 3-1c0 0 1-.146 1 2v8h6l2 2s3 .016 3 1a11.256 11.256 0 0 1 3 0c1.526.229 3.038-3 8-3s7 3 7 3h2a1.963 1.963 0 0 1 2-1c2.092.009 13 1 13 1l8-1v1h4a40.413 40.413 0 0 1 6-1c1.83-.024 2 2 2 2a13.018 13.018 0 0 1 1 9s-2.3 2.2-6 0h-5l-1 1H95s-.868.934 1 1c0 0 .959 1-5 1l-1 1h-7v1h-1l-1 8s-3.411 1.326-3-1 1-7 1-7l-1-2h-1v3h-9v3s.893.522 0 1-.694 1.152-3 1v2l-2 2 1 2-7-3 6-6a1.665 1.665 0 0 0-2-2l-1-1v-2h-2v1h-4l-2 3h-5s-.978.26-1 2 .45 6.547-3 7a1.322 1.322 0 0 1-2 0c-.9-1.1-.745-11.807-12-12l-1-1H16l-2-1v1s-1.418 1.42-5 0c-1.885-.747-1.35-13.582 0-15 2.185-2.3 7 0 7 0V69l1-1h3l1 1h8z"
    fill="#49adc9" />
  <path
    d="M94 38v-4h10v4H94Zm-4.95-12.828 7.071-7.072 2.828 2.828L91.879 28ZM81 46a10 10 0 0 1-9.541-7H23v-6h48.459A10 10 0 1 1 81 46Zm-2-33h4v10h-4V13Zm-15.993 7.852 2.855-2.864L73 25.148l-2.855 2.864Zm10.011 26-7.15 7.161-2.86-2.864 7.15-7.161ZM83 59h-4V49h4v10Zm16.012-7.929L96.179 53.9 89.1 46.828 91.929 44Z"
    fill="#fff" />
</svg>
