<svg xmlns="http://www.w3.org/2000/svg" xmlns:xlink="http://www.w3.org/1999/xlink" viewBox="0 0 126 126">
  <defs>
    <style>
      .cls-1, .cls-2 {
        fill: #49adc9;
      }

      .cls-2, .cls-3 {
        fill-rule: evenodd;
      }

      .cls-3 {
        fill: #fff;
      }
    </style>
  </defs>
  <rect class="cls-1" x="79" y="41" width="9" height="10"/>
  <path class="cls-2" d="M75,41H64L54,32V46l11,4V98h39l9-9V32l-10,9H92V55H75V41Z"/>
  <path class="cls-3" d="M31,63"/>
  <path class="cls-2" d="M54,27L65,37h37l11-10V16H54V27Z"/>
  <path class="cls-3" d="M8,99s24,16,26,16S60,99,60,99V53s-22.07-6-26-6S8,53,8,53V99ZM23,81L38,60,33,77H45L30,97l5-16H23Z"/>
</svg>
