<svg xmlns="http://www.w3.org/2000/svg" viewBox="0 0 126 126"><path d="M29.227 20.952A18.825 18.825 0 1 1 10.4 39.778a18.825 18.825 0 0 1 18.827-18.826zm0 2.121a16.7 16.7 0 1 1-16.7 16.7 16.7 16.7 0 0 1 16.7-16.7zm.139 3.608a12.776 12.776 0 1 1-12.76 12.776 12.768 12.768 0 0 1 12.76-12.776zm0 2a10.774 10.774 0 1 1-10.76 10.774 10.767 10.767 0 0 1 10.76-10.772zm.103 4.403a6.6 6.6 0 1 1-6.6 6.6 6.6 6.6 0 0 1 6.6-6.6zm69.816 14.897h-2.676L78.414 43.7h-3.746v1.07l-2.676 3.211h-9.1l2.676-5.887H63.43l-3.211 5.887h-4.281l2.676-7.492v-1.07l-2.676-7.492h4.281l3.211 5.887h2.14l-2.676-5.887h9.1l2.676 3.211v1.07h3.746l18.2-4.281h2.676l19.8 4.281V43.7z" fill="#fff" fill-rule="evenodd"/><path d="M112.664 77.414h3.211s2.141.186 2.141 5.887-2.141 6.957-2.141 6.957h-3.746a4.859 4.859 0 0 1-2.676-2.141 9.31 9.31 0 0 0-3.746 0 74.44 74.44 0 0 1-13.379 1.606h-4.281a5.11 5.11 0 0 0-3.211-1.606c-1.742 0-3.211 2.676-3.211 2.676h-17.66v-1.07h-1.07v.535h.535v.535h-9.1v.535l14.449.535-3.211 15.52H63.43V94.539h-.535L62.359 94h-.535l-.535.535v.535h-3.211v-.531h-3.746v.535h-2.676l-.535 1.07H46.3l-1.6-3.21-1.07.535h-1.607l.535 1.07v2.141l4.816 7.492-3.211 1.605h-1.07l-4.28-8.027h-8.028l-1.07-1.606v-2.675l-1.07-.535-2.676-.534v.535h-3.746v.535h-1.606l-1.07 8.562s-.221 1.071-2.141 1.071c0 0-1.973.378-1.07-3.746l2.141-8.027a2.32 2.32 0 0 1 2.141-1.605c1.65 0 1.605 1.07 1.605 1.07h3.746v.535h1.07v-.537l1.07-1.07H24.9l-1.605-.535h-5.889s-.371 1.07-2.676 1.07-3.746-1.727-3.746-6.957 3.746-6.422 3.746-6.422 2.1-.029 2.141 1.605h2.676l3.211-.535 4.281-.535.535-1.07h2.141l.535.535h9.633v.535H46.3v-.535h1.07v-.535h14.454v.535h.535v.535h3.746v-.535h2.676v.535h4.281v-.535H75.2v.535h3.746v-.535h2.676s1.062 2.141 2.141 2.141h2.676a1.458 1.458 0 0 0 1.07-1.07s12.451-.49 19.265 1.605h2.676a3.172 3.172 0 0 1 3.214-2.141z" fill-rule="evenodd" fill="#5dbcd6"/></svg>