<svg xmlns="http://www.w3.org/2000/svg" viewBox="0 0 126 126"><defs><style>.cls-1{fill:#fff;fill-rule:evenodd}</style></defs><g id="round"><path d="M29.227 20.952A18.825 18.825 0 1 1 10.4 39.778a18.825 18.825 0 0 1 18.827-18.826Zm0 2.121a16.7 16.7 0 1 1-16.7 16.7 16.7 16.7 0 0 1 16.7-16.7Z" class="cls-1" /><path id="Ellipse_1_copy_4" d="M29.366 26.681a12.776 12.776 0 1 1-12.76 12.776 12.768 12.768 0 0 1 12.76-12.776Zm0 2a10.774 10.774 0 1 1-10.76 10.774 10.767 10.767 0 0 1 10.76-10.772Z" class="cls-1" /><path id="Ellipse_1_copy_2" d="M29.469 33.084a6.6 6.6 0 1 1-6.6 6.6 6.6 6.6 0 0 1 6.6-6.6Z" class="cls-1" /></g><g id="missile"><path id="Shape_1_copy" d="M99.285 47.981h-2.676L78.414 43.7h-3.746v1.07l-2.676 3.211h-9.1l2.676-5.887H63.43l-3.211 5.887h-4.281l2.676-7.492v-1.07l-2.676-7.492h4.281l3.211 5.887h2.14l-2.676-5.887h9.1l2.676 3.211v1.07h3.746l18.2-4.281h2.676l19.8 4.281V43.7Z" class="cls-1" /></g><path fill="#5dbcd6" fill-rule="evenodd" d="M114 85h-3l-1 1-2 1H98a3.782 3.782 0 0 0-3-1h-3a4.414 4.414 0 0 0-1.949.538c.005 1.935-1.309 1.5-2.33 1.577A2.564 2.564 0 0 1 86 87l-4.963.279-1.253.418h-2.507l.835.835v.418h.836v-.418h2.924s-.034-.832 1.254-.832a1.811 1.811 0 0 1 1.674 1.25s.963 3.05 1.668 6.267-.836 2.924-.836 2.924c-1.5 0-1.671-.835-1.671-.835l-.835-6.684h-1.253V90.2h-2.925v-.414l-2.089.418-.836.418v2.088l-.836 1.253h-6.265l-3.342 6.267h-.836l-2.507-1.253L66 93.128v-1.671l.418-.835h-1.256l-.836-.422-1.253 2.51h-3.76l-.413-.835h-2.094v-.418h-2.924v.418h-2.507v-.418l-.418-.418h-.417l-.418.418H49.7v10.026h-1.667l-2.507-12.115 11.28-.418v-.418H49.7v-.417h.418V87.7h-.832v.835H35.5s-1.147-2.089-2.507-2.089a3.989 3.989 0 0 0-2.507 1.254h-3.342A58.111 58.111 0 0 1 16.7 86.444a7.269 7.269 0 0 0-2.924 0 3.793 3.793 0 0 1-2.089 1.671H8.762s-1.671-.981-1.671-5.431 1.671-4.6 1.671-4.6h2.507a2.476 2.476 0 0 1 2.507 1.671h2.089c5.32-1.636 15.04-1.253 15.04-1.253a1.138 1.138 0 0 0 .836.836h2.089c.842 0 1.671-1.671 1.671-1.671h2.089v.418h2.924v-.415h1.671v.418h3.342v-.418h2.089v.418h2.924v-.418h.418v-.417h11.28v.417h.835v.418h5.013v-.418h7.52l.418-.418h1.671l.418.836 3.342.418 2.507.418L86 79c.645-2.192 2-2 2-2s1.574-.045 2.293 2.579A4.185 4.185 0 0 0 92 80h3a3.782 3.782 0 0 0 3-1h10l2 1 1 1h3l5 2Z" /></svg>