<svg id="HD2-AMR" xmlns="http://www.w3.org/2000/svg" xmlns:xlink="http://www.w3.org/1999/xlink" viewBox="0 0 126 126">
  <defs>
    <style>
      .cls-1 {
        fill: #49adc9;
      }

      .cls-1, .cls-3 {
        fill-rule: evenodd;
      }

      .cls-2, .cls-3 {
        fill: #fff;
      }
    </style>
  </defs>
  <path class="cls-1" d="M29,85V81H49v3l-2,1H44v2h6l1,1h1V86h9l2,2H74l2,2h30V88h15v7H106V93H76v3H73V95H71v11h2v2H67v-2h2V96l-2-2H65l-1,1H54l-1,1H50v5H48V97H38v2l-3-1H33l-5,3v4H24l-1-3,4-4V96l-1-2H18l-1,2v1l-1,2H11l-4,3H4V90l3-2H27l1-1h6V85H29ZM7,98V93h8v1l-5,4H7Zm26-2h2v1H33V96Z"/>
  <rect class="cls-2" x="60" y="17" width="4" height="50"/>
  <rect id="Rectangle_1_copy" data-name="Rectangle 1 copy" class="cls-2" x="37" y="40" width="51" height="4"/>
  <path class="cls-3" d="M62,22A20,20,0,1,1,42,42,20,20,0,0,1,62,22Zm0,5A15,15,0,1,1,47,42,15,15,0,0,1,62,27Z"/>
</svg>
