<svg xmlns="http://www.w3.org/2000/svg" viewBox="0 0 126 126" fill="#fff">
	<path fill-rule="evenodd" fill="#49adc9" d="M29 85v-4h20v3l-2 1h-3v2h6l1 1h1v-2h9l2 2h11l2 2h30v-2h15v7h-15v-2H76v3h-3v-1h-2v11h2v2h-6v-2h2V96l-2-2h-2l-1 1H54l-1 1h-3v5h-2v-4H38v2l-3-1h-2l-5 3v4h-4l-1-3 4-4v-2l-1-2h-8l-1 2v1l-1 2h-5l-4 3H4V90l3-2h20l1-1h6v-2h-5ZM7 98v-5h8v1l-5 4H7Zm26-2h2v1h-2v-1Z"/>
	<path d="M60 17h4v50h-4z"/>
	<path d="M37 40h51v4H37z"/>
	<path fill-rule="evenodd" d="M62 22a20 20 0 1 1-20 20 20 20 0 0 1 20-20Zm0 5a15 15 0 1 1-15 15 15 15 0 0 1 15-15Z"/>
</svg>