<svg xmlns="http://www.w3.org/2000/svg" viewBox="0 0 126 126"><defs><style>.cls-2{fill:#fff}</style></defs><g><path fill="#49adc9" fill-rule="evenodd" d="M106 94v-1H76v3h-3v-1h-2v11h2v2h-6v-2h2V96l-2-2h-2l-1 1H54l-1 1h-3v5h-2v4h-8.947L39 104h-1v-5l-2-1a3.229 3.229 0 0 1-2 1 11.073 11.073 0 0 1-3-1l-3 3v4h-4l-1-3 4-4v-2l-1-2h-8l-1 2v1l-1 2h-5l-4 3H4V90l3-2h20l1-1h6v-2h-5v-4h20v3l-2 1h-3v2h6l1 1h1v-2h9l2 2h11l2 2h30v-1h15v5h-15Zm-91-1H7v5h3l5-4v-1Zm19 2c-1.1 0-2 .448-2 1a1.152 1.152 0 0 0 1 .861V97h2v-.139A1.152 1.152 0 0 0 36 96c0-.552-.9-1-2-1Z"/><path d="M60 17h4v50h-4z" class="cls-2"/><path d="M37 40h51v4H37z" class="cls-2" /><path fill="#fff" fill-rule="evenodd" d="M62 22a20 20 0 1 1-20 20 20 20 0 0 1 20-20Zm0 5a15 15 0 1 1-15 15 15 15 0 0 1 15-15Z"/></g></svg>