<svg xmlns="http://www.w3.org/2000/svg" viewBox="0 0 126 126">
  <path d="M24 26h15L24 13v13zm0 27h15L24 66V53zm73-4H24v-7h40v-5H24v-7h73s9 1.032 9 10-9 9-9 9z" fill="#fff"
    fill-rule="evenodd" />
  <path
    d="M113 87v7l-6 4h-4l-2 1h-4v7s-2.794 2.22-5 0v-7h-2s.362 2.993-2 3h-3s-6.757 6.1-5 10a.828.828 0 0 1 0 1 1.664 1.664 0 0 1-1 0c-.724-.391-3.782-2.2-4-4h-9l-2 1h-4v4s.434 3-5 3a4.343 4.343 0 0 1-4-3 27.593 27.593 0 0 0 0-7 7.192 7.192 0 0 0-6-6h-8s-2-.3-2-2 1-2 1-2v-1H14V77h34l6-2h37l1 2h18l2 2h1v6h-1v2h1zm-35 13H68v7h6l4-5v-2zm8-1c-.149.459 0 1.984 1 2 .5.008 1.623.432 2-1a1.224 1.224 0 0 0 0-1c-.449-.726-2.39-1.886-3 0z"
    fill-rule="evenodd" fill="#49adc9" />
</svg>