<svg xmlns="http://www.w3.org/2000/svg" viewBox="0 0 126 126">
    <path d="m92 29-3 1.25-2 .917h-8L76 33H42V22h34l3 1.833h8l2 .917L92 26l2 1.5zm-59 3.083V22h5v11h-5v-.917zM92 44l-3 1.25-2 .917h-8L76 48H42V37h34l3 1.833h8l2 .917L92 41l2 1.5zm-59 3.083V37h5v11h-5v-.917zM92 59l-3 1.25-2 .917h-8L76 63H42V52h34l3 1.833h8l2 .917L92 56l2 1.5zm-59 3.083V52h5v11h-5v-.917z" fill="#fff" fill-rule="evenodd"/>
    <path d="M14 81h19l2-2h14l1-1h16l1 2h17l2 4h4v-1h5l1 1 18 1 1-1h6l1 1v2l-1 1h-6l-1-1H95v1h1v3h-6l3 18 2 2v2l-7-2v-2h2v-2l-3-1-2-1v-1h2l-1-13h-2l-2 1v3l-9 10h-4l-1 1h-2l-1 2H53l-2-1-2-1V91h2v-2h-2v1l-1 1v2a1.824 1.824 0 0 1-1 1 3.907 3.907 0 0 1-2 0l-1-1h-1v1l-4 7-7-1-4-1-5-4-1-1h-3v1h-2v-1h-6l-2-2-1-11h6zm-2 6a4.372 4.372 0 0 1 3 0c.461.42 0 2 0 2a1.128 1.128 0 0 0-1 0c-.164.307.213 1.052-1 1a1.046 1.046 0 0 1-1-1s-.287-1.713 0-2zm17 4a.911.911 0 0 1 1.046-1A.836.836 0 0 1 31 91h1a2.477 2.477 0 0 1 0 2 5.093 5.093 0 0 1-1 1v2a5.82 5.82 0 0 1-1 0 9.229 9.229 0 0 1-2-1 12.655 12.655 0 0 1 0-3 1.875 1.875 0 0 1 1-1zm6 8v-3l1-2s3.368 1.283 5 1c.059-.01-1 1-1 1l-2 3h-3zm15-19h6v1a4.969 4.969 0 0 0-2 0 1.707 1.707 0 0 0-1 1h-3v-2zm17 2v-1h2l1 1v2a6.4 6.4 0 0 1-1 0c-.209-1.408-2-2-2-2zm5-1v1h3l1 1h1v-1h-1v-1h-4zm7 0v1h1v1h1v-1zm-2 0v1h1v1h1v-1zm14 7h-2v-1a4.273 4.273 0 0 0 2 0v1zm-25 2h2s1.087.085 1 2c-.011.248-.147.687 1 1a10.438 10.438 0 0 0 2 0v1h-3a1.039 1.039 0 0 1-1-1v-2h-2v-1zm7 0s-1.256.489-1 1c.02.041 2 0 2 0s.306-.429-1-1zm8-9v1h1v1h1v-1zm-21-1v1h-4v1h6v-2h-2zM38 93s-.58.879 3 1c0 0 .5-2.037-1-2s-2-.248-2 1zm8-2a.563.563 0 0 0 0 1s.686.51 1 0a.961.961 0 0 0 0-1c-.186-.73-.224-.479-1 0z" fill-rule="evenodd" fill="#49adc9"/>
</svg>