<svg xmlns="http://www.w3.org/2000/svg" viewBox="0 0 126 126"><path d="M95 51.306H70V27.171h25s5 .676 5 4v16.213c0 3.26-5 3.922-5 3.922Zm-5.348-17.418a5.7 5.7 0 1 0 5.7 5.7 5.7 5.7 0 0 0-5.7-5.7ZM28 45.423V33.171c0-3.128 5-5 5-5h34v22.155H33s-5-1.836-5-4.903Zm11-.689a1.5 1.5 0 0 0 1.5 1.5h22a1.5 1.5 0 0 0 1.5-1.5v-.126a1.5 1.5 0 0 0-1.5-1.5h-22a1.5 1.5 0 0 0-1.5 1.5v.125Zm0-10a1.5 1.5 0 0 0 1.5 1.5h22a1.5 1.5 0 0 0 1.5-1.5v-.126a1.5 1.5 0 0 0-1.5-1.5h-22a1.5 1.5 0 0 0-1.5 1.5v.125Zm7-14.563h15c3.377 0 4 5 4 5H41a8.383 8.383 0 0 1 5-5Zm15 38H46a8.328 8.328 0 0 1-5-4.9h24s-.623 4.9-4 4.9Z" style="fill-rule:evenodd;fill:#fff"/><path d="M34 73h12l1 1h8l2 5h1v6h-1v2h3v-3h3l1 2h1v-3l-1-2v-1l1-1 2 1v1h19l1 1v3l-1 1H69v3h16v-1h4v1h4l1-2 5 1 7-1 2 1s1.877-1.014 2.875.006L112 87l3 1s6.039 5.6 1 14h-1l-2 1h-3a1.684 1.684 0 0 0-2 0 2.259 2.259 0 0 0-2 0h-2s-1.818.063-2 0a4.793 4.793 0 0 0-3 0H78l-2-1H51l-1-1h-4l-1 1h-3l-1 2h4l3 1v1h-8l-2-1-1 2H23l-1 1h-2l-3-5h-6l-2-1v-2l2-8s6.793-.669 9-3 4-7 4-7 3.126-6.592 7 0v5h1l2-2v-1l-1-1v-3a2.921 2.921 0 0 0 1-1c-.02-.805 0-1 0-1h-1v-4Z" style="fill:#49adc9;fill-rule:evenodd"/></svg>
