<svg xmlns="http://www.w3.org/2000/svg" viewBox="0 0 126 126"><defs><style>.cls-4{fill-rule:evenodd;fill:#fff}</style></defs><g id="BASE_TOURELLE_HOMME" data-name="BASE TOURELLE HOMME"><path d="M99.866 31A54.163 54.163 0 0 0 84.65 16H121v15H99.866Zm1.691 24v14H49.99v-5H64l5-5h15l13-10-13-10H69l-5-5H49.993V16h18.6s32.964-.032 32.964 39Zm-5.918 19v16h-37.2V74h37.2Zm6.761 20 10.99 16H39l10.99-16h52.41Z" style="fill-rule:evenodd;fill:#679552"/><circle id="Ellipse_1_copy" data-name="Ellipse 1 copy" cx="18" cy="24" r="9" style="fill:#fff"/><path id="Shape_16_copy_2" data-name="Shape 16 copy 2" class="cls-4" d="M5 34v40h5v37h16V74h5V34H5Z"/><path id="Shape_30_copy" data-name="Shape 30 copy" class="cls-4" d="M82 55H66l-4 5H39V38h23l4 5h16l8 6Z"/></g></svg>