<svg xmlns="http://www.w3.org/2000/svg" viewBox="0 0 126 126"><path d="M90 33s-6.007-8.3-18-15h43v15H90Zm2 24v14H63.313L73 61 35.733 18H53s39-.032 39 39Zm-7 35H42.969l15.5-16H85v16Zm8 4 13 16H18l13-16h62Z" style="fill-rule:evenodd;fill:#679552"/><path data-name="Shape 23 copy 2" d="M31.248 86.589 14.581 69.922V53.256l12.5-11.111 5.555-20.833 13.889 19.444v9.722l5.555-5.555 13.889 16.666-25 25V75.478l5.555-5.555-8.333-4.167V54.645L28.47 68.533l4.166 5.555v12.5h-1.388Z" style="fill:#fff;fill-rule:evenodd"/></svg>