<svg xmlns="http://www.w3.org/2000/svg" viewBox="0 0 126 126">
  <path fill="#49adc9" fill-rule="evenodd" d="M106.574 76.125c0-1.398-1.574-2.102-1.574-2.102H15.227c-6.957 0-6.829-1.574-6.829-1.574s-.128-1.574 6.829-1.574H105s1.574-.703 1.574-2.102c0 0 6.969 3.676 11.028 3.676-4.059 0-11.028 3.676-11.028 3.676Zm0 0"/>
  <path fill="#49adc9" fill-rule="evenodd" d="M84.523 72.45c-.824 1.214-3.148 3.152-3.148 3.152a27.267 27.267 0 0 1-3.148-3.153c-.891-1.215 3.148-2.625 3.148-2.625s3.977 1.41 3.148 2.625ZM105 72.45c-.824 1.214-3.148 3.152-3.148 3.152a26.995 26.995 0 0 1-3.153-3.153c-.89-1.215 3.153-2.625 3.153-2.625s3.972 1.41 3.148 2.625Zm0 0"/>
  <path fill="#49adc9" d="M79.273 75.074h24.676v40.95H79.273Zm0 0"/>
  <path fill="#fff" fill-rule="evenodd" d="M43.05 50.398 35.7 57.75v1.05l4.198 4.2h1.051l7.352-7.352 3.148 3.153H52.5l4.2-4.2L44.101 42l-4.204 4.2v1.05Zm13.126-2.625 14.699-15.222s7.32-8.219 8.398-18.375L50.926 42.523v1.051l4.199 4.2ZM81.898 50.398l7.352 7.352v1.05l-4.2 4.2H84l-7.352-7.352-3.148 3.153h-1.05l-4.2-4.2L80.852 42l4.199 4.2v1.05Zm-12.074-2.625h-1.05l-3.868-4.003 5.18-5.184 3.937 3.937v1.051ZM55.105 33.617l-1.03-1.066s-7.321-8.219-8.4-18.375l14.438 14.437Zm0 0"/>
</svg>
