<svg xmlns="http://www.w3.org/2000/svg" viewBox="0 0 126 126" fill="#fff">
<path fill="#679552" d="M90 33s-6-8.3-18-15h43v15H90Zm2 24v14H51.5a9 9 0 0 0-6-6.1c3.1-1.2 6.5-3.7 6.5-8.8a9 9 0 0 0-6.5-9.2c3.1-1.2 6.5-3.7 6.5-8.8C52 27.5 40 28 40 28h-9V18h22s39 0 39 39ZM51.8 76H85v16H41v-8c2.6-.3 9.6-1.6 10.8-8ZM93 96l13 16H18l13-16h62Z"/>
<path d="M9 67h21L16 81H9V67Zm26 0L22 81h20s7-1.3 7-7-6-7-6-7h-8Z"/>
<path d="M9 49h21L16 63H9V49Zm26 0L22 63h20s7-1.3 7-7-6-7-6-7h-8Z"/>
<path d="M9 31h21L16 45H9V31Zm26 0L22 45h20s7-1.3 7-7-6-7-6-7h-8Z"/>
</svg>