<svg xmlns="http://www.w3.org/2000/svg" viewBox="0 0 126 126" fill="#fff">
<path d="M8,13 H 29 l-14,14 H 8 Z m 26,0 -13,14 h 20 c 0,0 7,-1.3 7,-7 0,-5.7 -6,-7 -6,-7 z" />
<path d="M8,30 H 29 l-14,14 H 8 Z m 26,0 -13,14 h 20 c 0,0 7,-1.3 7,-7 0,-5.7 -6,-7 -6,-7 z" />
<path d="M78,13 h21 l-14,14 h -7 z m 26,0 -13,14 h 20 c 0,0 7,-1.3 7,-7 0,-5.7 -6,-7 -6,-7 z" />
<path d="M78,30 h21 l-14,14 h -7 z m 26,0 -13,14 h 20 c 0,0 7,-1.3 7,-7 0,-5.7 -6,-7 -6,-7 z" />
<path fill="#49adc9" d="M81 103v4l6 6 1 1H65l1-1 6-6v-8l6-7V78h9v18Zm-7-16-6 7H58l-6-7V74H39V58l4-4h8l5-4h14l5 4h8l4 4v16H74v13Zm-4-29H56v12h14V58ZM48 92l6 7v8l6 6 1 1H38l1-1 6-6v-4l-6-7V78h9v14Z" />
</svg>
