<svg xmlns="http://www.w3.org/2000/svg" viewBox="0 0 126 126" fill="#fff" xmlns:helldivers2="http://example.com/custom">
  <path fill="#679552" d="M90 33s-6-8.3-18-15h43v15H90Zm2 24v14H44s9-22.4 9-28-9-25-9-25h9s39 0 39 39Zm-7 35H50v-8l-6-6v-2h41v16Zm-47 9h12v-5h43l13 16H18l9-11h11Z"/>
  <path d="m17 50 5-20L2 56l14-1-4 20 20-26Z"/>
  <path d="M40 69v11l6 6v11H27V86l6-6V69s-2-4.3-4-9.5L38 46H24.5l-.3-1.1 1.8-10c2.7-7.5 7-16.9 7-16.9h7s9 19.4 9 25-9 26-9 26Z"/>
  <metadata>
    <helldivers2:data>
      <helldivers2:Name>EMS Mortar Sentry</helldivers2:Name>
      <helldivers2:Combination>['down', 'up', 'right', 'down', 'right']</helldivers2:Combination>
      <helldivers2:Description>Long-ranged turret that fires static field generators to slow enemies down.</helldivers2:Description>
      <helldivers2:Level>20</helldivers2:Level>
      <helldivers2:Category>Sentry</helldivers2:Category>
    </helldivers2:data>
  </metadata>
</svg>