<svg xmlns="http://www.w3.org/2000/svg" viewBox="0 0 126 126" fill="#fff">
<path fill="#679552" d="M90 33s-6-8.3-18-15h43v15H90Zm2 24v14H51.5l-.5-1-1-1h-4l-1-1h-9v-2h9l1-1h4l1-1 1-2 1-1v-1l-1-1-1-2-1-1h-4l-1-1h-9v-3h9l1-1h4l1-1 1-2 1-1v-1l-1-1-1-2-1-1h-4l-1-1h-9v-2h9l1-1h4l1-1 1-2 1-1v-1l-1-1-1-2-1-1h-4l-1-1h-9v-1h-5v-9h22s39 0 39 39ZM52 85l-1-2-1-1h-4l-1-1h-4v-2h4l1-1h4l1-1 .5-1H85v16H45l1-1h4l1-1 1-2 1-1v-1Zm41 11 13 16H18l13-16h62Z"/>
<path d="M9 90h26l1-1h8l1-1h3l1-1v-1l-1-1h-3l-1-1h-8l-1-1H9v7Z"/>
<path d="M9 77h26l1-1h8l1-1h3l1-1v-1l-1-1h-3l-1-1h-8l-1-1H9v7Z"/>
<path d="M9 64h26l1-1h8l1-1h3l1-1v-1l-1-1h-3l-1-1h-8l-1-1H9v7Z"/>
<path d="M9 50h26l1-1h8l1-1h3l1-1v-1l-1-1h-3l-1-1h-8l-1-1H9v7Z"/>
<path d="M9 37h26l1-1h8l1-1h3l1-1v-1l-1-1h-3l-1-1h-8l-1-1H9v7Z"/>
</svg>