<svg xmlns="http://www.w3.org/2000/svg" xmlns:xlink="http://www.w3.org/1999/xlink" viewBox="0 0 126 126">
  <defs>
    <style>
      .cls-1, .cls-2 {
        fill: #49adc9;
      }

      .cls-2, .cls-3 {
        fill-rule: evenodd;
      }

      .cls-3 {
        fill: #fff;
      }
    </style>
  </defs>
  <rect class="cls-1" x="79" y="41" width="9" height="10"/>
  <path class="cls-2" d="M75,41H63l-9-9V44L67,63V98h37l9-9V32l-9,9H92V55H75V41Z"/>
  <path class="cls-2" d="M54,27L65,37h37l11-10V16H54V27Z"/>
  <path id="Shape_9_copy_2" data-name="Shape 9 copy 2" class="cls-3" d="M20,114L9,98V65L20,49v8h7l4-14H41l4,14h7V49L63,65V98L52,114v-8H45l-4,14H31l-4-14H20v8Zm1-50H34a0.964,0.964,0,0,0,1,1H47s5,1.957,5,3-5,3-5,3H35a0.967,0.967,0,0,0-1,1H21V64Zm0,13H34a0.964,0.964,0,0,0,1,1H47s5,1.957,5,3-5,3-5,3H35a0.967,0.967,0,0,0-1,1H21V77Zm0,13H34a0.964,0.964,0,0,0,1,1H47s5,1.957,5,3-5,3-5,3H35a0.967,0.967,0,0,0-1,1H21V90Z"/>
</svg>
