<svg id="HD2-OWB" xmlns="http://www.w3.org/2000/svg" xmlns:xlink="http://www.w3.org/1999/xlink" viewBox="0 0 126 126">
  <defs>
    <style>
      .cls-1 {
        fill: #de7b6c;
      }

      .cls-1, .cls-3 {
        fill-rule: evenodd;
      }

      .cls-2, .cls-3 {
        fill: #fff;
      }
    </style>
  </defs>
  <g id="HD2-OSS">
    <path id="base_copy" data-name="base copy" class="cls-1" d="M94.47,93h15.288A53.738,53.738,0,0,1,117,120H98.924C98.595,108.98,96.92,100.12,94.47,93ZM74.191,67.2A53.991,53.991,0,0,1,107.9,90H93.357C88.144,77.027,80.311,70.472,74.191,67.2ZM90.327,90H65V67C78.307,70.34,85.946,79.73,90.327,90ZM35.5,93H62v27H30.912A85.548,85.548,0,0,1,35.5,93ZM62,67V90H36.681C41.065,79.73,48.7,70.343,62,67ZM33.635,90H18.1A53.974,53.974,0,0,1,53.38,66.9C47.181,70.059,39.013,76.6,33.635,90Zm-5.559,30H9a53.732,53.732,0,0,1,7.242-27H32.523C30.077,100.12,28.4,108.98,28.076,120Zm67.569,43a53.939,53.939,0,0,1-65.289,0H95.644ZM91.509,93a85.481,85.481,0,0,1,4.58,27H65V93H91.509Z"/>
    <g>
      <rect class="cls-2" x="62" y="14" width="3" height="50"/>
      <rect class="cls-2" x="71" y="14" width="3" height="3"/>
      <rect class="cls-2" x="71" y="24" width="3" height="3"/>
      <rect class="cls-2" x="71" y="33" width="3" height="3"/>
      <rect class="cls-2" x="71" y="42" width="3" height="3"/>
      <rect class="cls-2" x="71" y="51" width="3" height="3"/>
      <rect class="cls-2" x="71" y="60" width="3" height="3"/>
      <path class="cls-3" d="M49.629,58.284l3.967-.517,0.776,5.95-3.967.517Z"/>
      <path id="Rectangle_17_copy" data-name="Rectangle 17 copy" class="cls-3" d="M39.134,60.812l3.783-1.3,1.949,5.675-3.783,1.3Z"/>
      <path id="Rectangle_17_copy_2" data-name="Rectangle 17 copy 2" class="cls-3" d="M28.679,66.6l3.34-2.2,3.3,5.01-3.34,2.2Z"/>
      <path id="Rectangle_17_copy_3" data-name="Rectangle 17 copy 3" class="cls-3" d="M20.5,73.147l2.943-2.709L27.5,74.853,24.56,77.562Z"/>
    </g>
  </g>
</svg>
