<svg id="HD2-O380" xmlns="http://www.w3.org/2000/svg" xmlns:xlink="http://www.w3.org/1999/xlink" viewBox="0 0 126 126">
  <defs>
    <style>
      .cls-1 {
        fill: #de7b6c;
      }

      .cls-1, .cls-2 {
        fill-rule: evenodd;
      }

      .cls-2 {
        fill: #fff;
      }
    </style>
  </defs>
  <path id="Shape_31_copy_2" data-name="Shape 31 copy 2" class="cls-1" d="M98.924,120c-0.329-11.02-2-19.88-4.454-27h15.288A53.738,53.738,0,0,1,117,120H98.924ZM96,89V77.287A54.06,54.06,0,0,1,107.9,90H95.047ZM77,72.586V89l0.947,1H65V85.393L73,77V70.057A33.58,33.58,0,0,1,77,72.586ZM35.5,93H62v27H30.912A85.548,85.548,0,0,1,35.5,93ZM54,70.062V77l8,8.449V90H36.681C40.1,82,45.5,74.551,54,70.062ZM18.1,90A54.074,54.074,0,0,1,35.665,73.456l4.709,4.5A50.98,50.98,0,0,0,33.635,90H18.1Zm9.977,30H9a53.732,53.732,0,0,1,7.242-27H32.523C30.077,100.12,28.4,108.98,28.076,120ZM65,120V93H80.788l5.681,6,5.221-5.477A85.992,85.992,0,0,1,96.089,120H65Z"/>
  <g>
    <path class="cls-2" d="M35,68l6.5,7L48,68V46s3-.834,3-3V26H32V43.117A3.032,3.032,0,0,0,35,46V68Z"/>
    <path class="cls-2" d="M33,17a0.961,0.961,0,0,0-1,1v1a0.961,0.961,0,0,0,1,1H50a0.952,0.952,0,0,0,1-1V18a1,1,0,0,0-1-1H33Z"/>
    <path id="Shape_29_copy" data-name="Shape 29 copy" class="cls-2" d="M57,76l6.5,7L70,76V54s3-.834,3-3V34H54V51.117A3.032,3.032,0,0,0,57,54V76Z"/>
    <path id="Shape_30_copy" data-name="Shape 30 copy" class="cls-2" d="M55,25a0.961,0.961,0,0,0-1,1v1a0.961,0.961,0,0,0,1,1H72a0.952,0.952,0,0,0,1-1V26a1,1,0,0,0-1-1H55Z"/>
    <path id="Shape_29_copy_2" data-name="Shape 29 copy 2" class="cls-2" d="M80,88l6.5,7L93,88V66s3-.834,3-3V46H77V63.117A3.032,3.032,0,0,0,80,66V88Z"/>
    <path id="Shape_30_copy_2" data-name="Shape 30 copy 2" class="cls-2" d="M78,37a0.961,0.961,0,0,0-1,1v1a0.961,0.961,0,0,0,1,1H95a0.952,0.952,0,0,0,1-1V38a1,1,0,0,0-1-1H78Z"/>
  </g>
</svg>
