<svg id="HD2-O120" xmlns="http://www.w3.org/2000/svg" xmlns:xlink="http://www.w3.org/1999/xlink" viewBox="0 0 126 126">
  <defs>
    <style>
      .cls-1 {
        fill: #de7b6c;
      }

      .cls-1, .cls-2 {
        fill-rule: evenodd;
      }

      .cls-2 {
        fill: #fff;
      }
    </style>
  </defs>
  <g>
    <path class="cls-1" d="M98.924,120c-0.329-11.02-2-19.88-4.454-27h15.288A53.738,53.738,0,0,1,117,120H98.924ZM91.052,84.99c2.451-.195,4.659-3.241,6.129-6.767A54.085,54.085,0,0,1,107.9,90H93.357C92.636,88.206,91.862,86.547,91.052,84.99ZM83.134,73.944a37.245,37.245,0,0,0-8.943-6.74,53.728,53.728,0,0,1,8.67,2.62C82.89,71.152,82.969,72.57,83.134,73.944Zm1.842,6.569a8.846,8.846,0,0,0,2.264,3.4A50.141,50.141,0,0,1,90.327,90H65V84.751c0.3-.216.623-0.458,1-0.751,2.41-1.874,4.661-6.256,4.661-6.256s0.377-4.094.492-8.593A34.972,34.972,0,0,1,84.976,80.513ZM35.5,93H62v27H30.912A85.548,85.548,0,0,1,35.5,93ZM56,69.088V77s3.4,5.167,5,7a8.555,8.555,0,0,0,1,.99V90H36.681C40.356,81.39,46.333,73.416,56,69.088Zm-11.129.086A53.815,53.815,0,0,1,53.38,66.9a37.04,37.04,0,0,0-9.475,6.992A30.477,30.477,0,0,0,44.871,69.174ZM18.1,90A54.045,54.045,0,0,1,29.731,77.5c1.284,3.63,3.312,7.427,6.2,7.485-0.808,1.556-1.581,3.217-2.3,5.01H18.1Zm9.977,30H9a53.732,53.732,0,0,1,7.242-27H32.523C30.077,100.12,28.4,108.98,28.076,120ZM65,93H91.509a85.481,85.481,0,0,1,4.58,27H65V93Zm-2,81a53.726,53.726,0,0,1-32.644-11H95.644A53.726,53.726,0,0,1,63,174Z"/>
    <path class="cls-2" d="M32,75l3,6s1.344,2.25,3,0a28.687,28.687,0,0,0,3-6V59s2-.528,2-2V37H30V57a1.858,1.858,0,0,0,2,2V75ZM31,28a0.979,0.979,0,0,0-1,1v1a0.931,0.931,0,0,0,1,1H42a1.007,1.007,0,0,0,1-1V29a0.954,0.954,0,0,0-1-1H31Z"/>
    <path id="Shape_5_copy" data-name="Shape 5 copy" class="cls-2" d="M59,75l3,6s1.344,2.25,3,0a28.687,28.687,0,0,0,3-6V59s2-.528,2-2V37H57V57a1.858,1.858,0,0,0,2,2V75ZM58,28a0.979,0.979,0,0,0-1,1v1a0.931,0.931,0,0,0,1,1H69a1.007,1.007,0,0,0,1-1V29a0.954,0.954,0,0,0-1-1H58Z"/>
    <path id="Shape_5_copy_2" data-name="Shape 5 copy 2" class="cls-2" d="M86,75l3,6s1.344,2.25,3,0a28.687,28.687,0,0,0,3-6V59s2-.528,2-2V37H84V57a1.858,1.858,0,0,0,2,2V75ZM85,28a0.979,0.979,0,0,0-1,1v1a0.931,0.931,0,0,0,1,1H96a1.007,1.007,0,0,0,1-1V29a0.954,0.954,0,0,0-1-1H85Z"/>
  </g>
</svg>
