<svg xmlns="http://www.w3.org/2000/svg" viewBox="0 0 126 126">
<defs><style>.cls-2{fill-rule:evenodd;fill:#fff}</style></defs>
<path d="M28.08 120H9a53.73 53.73 0 0 1 7.24-27h16.28c-2.44 7.12-4.12 15.98-4.44 27Zm67.56 43ZM65 93h26.5a85.48 85.48 0 0 1 4.59 27H65V93Zm42.9-3H93.36a57.47 57.47 0 0 0-1.32-3H104l.34-1.7a53.99 53.99 0 0 1 3.56 4.7ZM77 80l7 7h4.93c.5.99.97 1.99 1.4 3H65V77h8l3.73-4.66.27.2V80ZM35.5 93H62v27H30.91a85.55 85.55 0 0 1 4.59-27Zm1.18-3c.43-1.01.9-2.01 1.4-3H42l7.12-8.9L49 74l3 3h10v13H36.68Zm-1.73-3c-.45.96-.9 1.95-1.31 3H18.1a53.92 53.92 0 0 1 3.39-4.51L23 87h11.95Zm74.8 6a53.74 53.74 0 0 1 7.25 27H98.92c-.32-11.02-2-19.88-4.45-27h15.29Z" style="fill-rule:evenodd;fill:#de7b6c"/>
<path id="Shape_23_copy_2" data-name="Shape 23 copy 2" class="cls-2" d="m53 73-6-10-1-11 10-9V27l14.1 14.7L70 56l4.65-11.36L81 62 71 73h-5v-4l4-4-6-6v-7L54 63l4 6 1 4h-6Z"/>
<path id="Shape_23_copy_3" data-name="Shape 23 copy 3" class="cls-2" d="m25.81 84.6-4.92-5.63v-9.14l7.03-6.33V52.25l9.92 10.34-.08 10.05 3.27-7.99L46 76l-7.54 8.6h-3.51v-2.82l2.81-2.81-4.22-4.22v-4.92l-7.03 7.73 2.82 4.22.7 2.81H25.8Z"/>
<path id="Shape_23_copy_4" data-name="Shape 23 copy 4" class="cls-2" d="m85.81 83.6-4.92-5.63v-9.14l7.03-6.33V51.25l9.92 10.34-.08 10.05 3.27-7.99 4.47 12.91-7.03 7.03h-3.52v-2.81l2.81-2.81-4.22-4.22v-4.92l-7.03 7.73 2.82 4.22.7 2.81H85.8Z"/>
</svg>
