<svg xmlns="http://www.w3.org/2000/svg" viewBox="0 0 126 126" fill="#fff">
<path fill="#de7b6c" d="M99 120a91 91 0 0 0-4.5-27h15.3a53.7 53.7 0 0 1 7.2 27H99ZM79 70.3v-1.8A54 54 0 0 1 107.9 90H93.4c-4-9.8-9.4-15.9-14.4-19.7ZM57 90H36.7A42 42 0 0 1 48 74.1V84h9v6Zm-23.4 0H18.1A54 54 0 0 1 48 68.2v2A45 45 0 0 0 33.6 90Zm-5.5 30H9a53.7 53.7 0 0 1 7.2-27h16.3c-2.4 7.1-4.1 16-4.4 27ZM63 174a53.7 53.7 0 0 1-32.6-11h65.2A53.7 53.7 0 0 1 63 174Zm33-54H65V93h26.5a85.5 85.5 0 0 1 4.6 27ZM35.6 93H62v27H31a85.5 85.5 0 0 1 4.5-27Zm54.8-3H70v-6h9V74a42 42 0 0 1 11.3 16Z"/>
<path d="M53 24h3v15h-3z"/>
<path d="M53 44h3v15h-3z"/>
<path d="M53 64h3v15h-3z"/>
<path d="M62 15h3v13h-3z"/>
<path d="M62 31h3v15h-3z"/>
<path d="M62 51h3v16h-3z"/>
<path d="M62 71h3v16h-3z"/>
<path d="M71 24h3v15h-3z"/>
<path d="M71 44h3v15h-3z"/>
<path d="M71 64h3v15h-3z"/>
</svg>