<svg xmlns="http://www.w3.org/2000/svg" viewBox="0 0 126 126" fill="#fff">
<path fill="#de7b6c" d="M99 120a91 91 0 0 0-4.5-27h15.3a53.7 53.7 0 0 1 7.2 27H99ZM78 69.6l.4-1.3A54 54 0 0 1 107.9 90H93.4A44.6 44.6 0 0 0 78 69.6Zm-29.8.5A45 45 0 0 0 33.6 90H18.1a54 54 0 0 1 29.5-21.7 16 16 0 0 0 .6 1.8ZM28.1 120H9a53.7 53.7 0 0 1 7.2-27h16.3c-2.4 7.1-4.1 16-4.4 27ZM63 174a53.7 53.7 0 0 1-32.6-11h65.2A53.7 53.7 0 0 1 63 174Zm33-54H65V93h26.5a85.5 85.5 0 0 1 4.6 27Zm-5.7-30H65V79.9a16 16 0 0 0 11.7-7.6c6.4 4.5 10.7 11 13.6 17.7ZM62 120H31a85.5 85.5 0 0 1 4.5-27H62v27ZM36.7 90a41 41 0 0 1 13-17.2A16 16 0 0 0 62 80v10H36.7Z"/>
<circle cx="63" cy="64" r="12"/>
<path d="M35 62h12v3H35zM79 62h12v3H79z"/>
<path d="m73.1 51.5 8.5-8.5 2.1 2.1-8.4 8.5Z"/>
<path d="M53 51.8 44.2 43 42 45.2l8.8 8.8Z"/>
<path d="M62 13h2v45h-2z"/>
</svg>