<svg xmlns="http://www.w3.org/2000/svg" viewBox="0 0 126 126" fill="#fff">
<path fill="#de7b6c" d="M99 120a91 91 0 0 0-4.5-27h15.3a53.7 53.7 0 0 1 7.2 27H99ZM76 68.2v-.6A54 54 0 0 1 107.9 90H93.4A43.6 43.6 0 0 0 76 68.2Zm-25 0A43.5 43.5 0 0 0 33.6 90H18.1A54 54 0 0 1 51 67.4v.8ZM28 120H9a53.7 53.7 0 0 1 7.2-27h16.3c-2.4 7.1-4.1 16-4.4 27Zm35 54a53.7 53.7 0 0 1-32.6-11h65.2A53.7 53.7 0 0 1 63 174Zm33-54H65v-13.1l6-6.9v-7h20.5a85.5 85.5 0 0 1 4.6 27Zm-5.7-30H71v-5l5-4v-9.2A40.3 40.3 0 0 1 90.3 90ZM51 71.8V81l5 4v5H36.7c3-7 7.5-13.6 14.3-18.2ZM35.5 93H56v7l6 6.9V120H31a85.5 85.5 0 0 1 4.5-27Z"/>
<path d="M54 59h19v20l-5 4v16l-4.5 5-4.5-5V83l-5-4V59Z"/>
<path d="M73 33h-4c0-3.9-2.5-7-5.5-7S58 29.1 58 33h-4c0-9.6 4-10 4-10s-4-4-4-12h4s.8 8 5 8h.6c4.4 0 5.2-8 5.2-8H73c0 8-4.2 12-4.2 12s4.2.4 4.2 10Zm0 0h-4c0 3.9-2.5 7-5.5 7S58 36.9 58 33h-4c0 9.6 4 10 4 10s-4 4-4 12h4s.8-8 5-8h.6c4.4 0 5.2 8 5.2 8H73c0-8-4.2-12-4.2-12s4.2-.4 4.2-10Z"/>
</svg>