<svg id="HD2-OL" xmlns="http://www.w3.org/2000/svg" xmlns:xlink="http://www.w3.org/1999/xlink" viewBox="0 0 126 126">
  <defs>
    <style>
      .cls-1 {
        fill: #de7b6c;
      }

      .cls-1, .cls-3 {
        fill-rule: evenodd;
      }

      .cls-2, .cls-3 {
        fill: #fff;
      }
    </style>
  </defs>
  <g id="HD2-OL-2" data-name="HD2-OL">
    <path class="cls-1" d="M98.924,120c-0.329-11.02-2-19.88-4.454-27h15.288A53.738,53.738,0,0,1,117,120H98.924ZM77.988,69.557c0.155-.417.294-0.84,0.414-1.272A54.015,54.015,0,0,1,107.9,90H93.357C89.174,79.591,83.306,73.32,77.988,69.557Zm-29.769.568C43.115,73.937,37.613,80.088,33.635,90H18.1A54.006,54.006,0,0,1,47.6,68.284,15.907,15.907,0,0,0,48.22,70.125ZM28.076,120H9a53.732,53.732,0,0,1,7.242-27H32.523C30.077,100.12,28.4,108.98,28.076,120ZM63,174a53.726,53.726,0,0,1-32.644-11H95.644A53.726,53.726,0,0,1,63,174Zm33.089-54H65V93H91.509A85.481,85.481,0,0,1,96.089,120ZM90.327,90H65V79.862A15.979,15.979,0,0,0,76.663,72.3C83.1,76.822,87.432,83.213,90.327,90ZM62,120H30.912A85.548,85.548,0,0,1,35.5,93H62v27ZM36.681,90A41.027,41.027,0,0,1,49.642,72.8,15.972,15.972,0,0,0,62,79.95V90H36.681Z"/>
    <g>
      <circle class="cls-2" cx="63" cy="64" r="12"/>
      <rect class="cls-2" x="35" y="62" width="12" height="3"/>
      <rect class="cls-2" x="79" y="62" width="12" height="3"/>
      <path id="Rectangle_8_copy" data-name="Rectangle 8 copy" class="cls-3" d="M73.134,51.5l8.485-8.485,2.121,2.121-8.485,8.485Z"/>
      <path id="Rectangle_8_copy_2" data-name="Rectangle 8 copy 2" class="cls-3" d="M52.991,51.8l-8.785-8.785-2.2,2.2L50.794,54Z"/>
      <rect class="cls-2" x="62" y="13" width="2" height="45"/>
    </g>
  </g>
</svg>
