<svg xmlns="http://www.w3.org/2000/svg" viewBox="0 0 126 126" fill="none"><path fill="#49adc9" d="M81 103v4l6 6 1 1H65l1-1 6-6v-8l6-7V78h9v18zm-7-16-6 7H58l-6-7V74H39V58l4-4h8l5-4h14l5 4h8l4 4v16H74zm-4-29H56v12h14zM48 92l6 7v8l6 6 1 1H38l1-1 6-6v-4l-6-7V78h9z"/><path fill="#fff" d="m83 10.5 15.5-3 15 3v25l-15 8.949L83 35.5zM8 19h18v14H8zM31.912 32.703a7.1 7.1 0 0 1-3.561.13v-3.43h3.561zm4.15-3.3a7.2 7.2 0 0 1-2.15 2.342v-2.342zm-4.15-2h-3.561v-3.052h3.561zm4.921-3.052c.108.492.167 1.002.167 1.526a7 7 0 0 1-.167 1.526h-2.92v-3.052zm-6.956-5.597c.707 0 1.39.104 2.035.296v3.3h-3.561V18.92a7 7 0 0 1 1.526-.165m4.035 1.254a7.2 7.2 0 0 1 2.15 2.343h-2.15z"/></svg>