<svg xmlns="http://www.w3.org/2000/svg" viewBox="0 0 126 126">
  <g fill="#fff">
    <path d="M34.788482 19.208168V21.71635H37.116275Z" />
    <path d="M32.460689 18.224661H29.550948V21.71635H32.460689Z" />
    <path d="M38.280172 24.044143H34.788482V26.953884H38.280172Z" />
    <path d="M32.460689 24.044143H29.550948V26.953884H32.460689Z" />
    <path d="M37.296665 29.281677H34.788482V31.60947Z" />
    <path d="M32.460689 29.281677H29.550948V32.773367H32.460689Z" />
    <path d="M27.223155 18.224661H8.018863V32.773367H27.223155Z" />
    <path d="M118.007081 35.461858V9.495437L102.239571 6.57097L85.999927 9.64267V35.402343L102.299692 44.99428Z" />
  </g>
  <path fill="#49adc9" d="M81 103v4l6 6 1 1H65l1-1 6-6v-8l6-7V78h9v18Zm-7-16-6 7H58l-6-7V74H39V58l4-4h8l5-4h14l5 4h8l4 4v16H74v13Zm-4-29H56v12h14V58ZM48 92l6 7v8l6 6 1 1H38l1-1 6-6v-4l-6-7V78h9v14Z" />
</svg>
