<svg xmlns="http://www.w3.org/2000/svg" viewBox="0 0 126 126">
    <path fill="#fff" d="m92 29-3 1.25-2 .917h-8L76 33H42V22h34l3 1.833h8l2 .917L92 26l2 1.5zm-59 3.083V22h5v11h-5v-.917zM92 44l-3 1.25-2 .917h-8L76 48H42V37h34l3 1.833h8l2 .917L92 41l2 1.5zm-59 3.083V37h5v11h-5v-.917zM92 59l-3 1.25-2 .917h-8L76 63H42V52h34l3 1.833h8l2 .917L92 56l2 1.5zm-59 3.083V52h5v11h-5v-.917z" />
    <path fill="#49adc9" d="m 65.377038,74.454199 v 0.454885 l -3.351348,0.0041 -0.930737,4.4909 h -5.055526 l -9.705098,6.057708 H 16.227848 v 0.527533 h -0.77344 l -0.45472,0.662163 h -2.35605 l -0.16279,-0.390827 H 8.3038578 c -0.63195,0 -0.87136,0.275327 -0.92868,0.81328 l -1.24533,18.816729 c -0.0127,0.56411 0.12522,1.02416 0.62988,1.02416 h 4.1900402 v -0.7707 h 1.50635 v 0.7707 h 7.3786 l 4.511507,-5.97872 h 17.996573 c 1.633848,0 2.090896,1.56186 1.563366,2.47557 l -5.688153,10.48335 c -0.153681,0.32418 -0.08829,0.66423 0.188896,0.82427 l 6.378479,3.07109 c 0,0 1.270402,0.41033 1.758444,-0.14906 0.555228,-0.63639 0.553716,-1.75832 -0.05564,-2.11013 -0.724047,-0.41803 -0.815943,-1.2342 -0.506928,-1.76943 l 5.673728,-8.42954 h 9.542308 l 2.354666,-3.34105 h 15.523075 v 2.81351 l 0.879222,-0.003 2.24133,-1.36623 0.772751,-1.44447 H 113.8414 l 1.38272,-1.75844 h 1.08185 l 1.45484,-2.04282 v -1.474072 h -1.75844 v -4.923643 h 3.86857 v -0.703378 h -1.09422 l 0.16211,-15.474305 h 0.93211 v -0.703377 l -6.50624,-0.0021 v -0.454836 h -4.94091 v 0.454885 h -6.68209 v -0.454885 z m -48.9026,21.90996 h 7.076366 v 2.461821 h -1.807213 l -4.038243,5.62702 h -1.23091 z m 10.374822,0 h 3.383631 V 98.82598 H 26.84926 Z m 5.802865,0 h 2.637665 v 2.461821 h -2.637665 z m 23.703959,5.275331 h 4.431141 v 2.81351 h -4.431141 c -1.414137,0 -1.44765,-2.81351 0,-2.81351 z" />
</svg>
