<svg xmlns="http://www.w3.org/2000/svg" viewBox="0 0 126 126" fill="none"><path fill="#fff" fill-rule="evenodd" d="M83.053 30.442h-7.166L74.1 32.233H43.64V22.38H74.1l1.791 1.791h7.166l5.822 3.135zM36.026 22.38h4.031v9.853h-4.031zM83.053 43.43h-7.166L74.1 45.221H43.64v-9.853H74.1l1.791 1.791h7.166l5.822 3.135zm-47.027-8.062h4.031v9.853h-4.031zM83.053 56.418h-7.166L74.1 58.21H43.64v-9.854H74.1l1.791 1.791h7.166l5.822 3.135zm-47.027-8.062h4.031v9.854h-4.031z" clip-rule="evenodd"/><path fill="#49adc9" d="M47.89 106.106c2.39 1.124 2.39-2.247 1.547-2.529-.675-.225-.282-1.219 0-1.687l4.498-6.606h6.886c1.8 0 2.624-1.874 2.812-2.811h12.93v2.39c2.587 0 3.42-1.594 3.514-2.39h26.144l.984-1.546h1.405c.675-.675.844-2.25.844-2.952h-1.546V84.46H111v-1.265h-.844v-12.65H111v-.843h-4.357l-.984-.703h-3.655v.703h-5.34V69H64.896c-.674.787-2.061.797-2.67.703l-.703 3.936-3.794.28-8.293 4.498h-24.88c-1.686 0-2.763 1.124-3.091 1.687h-1.687V79.4h-3.655v1.546h-.42v.984l.42.281v3.795l.563.422v.703c-.188.047-.563.28-.563.843s.375.703.563.703v.562c-.329.094-.984.422-.984.984s.562.796.843.843v.704c-.281.046-.843.252-.843.702s.28.656.421.703v.422c-.702 0-.843.421-.843.983 0 .45.282.563.422.563v.421c-.234 0-.703.112-.703.562s.469.563.703.563h3.795v-.704h1.265v.703h6.465l3.514-4.918h14.9c2.023 0 1.592 1.592 1.124 2.388l-4.779 7.731v1.687c1.172.469 3.992 1.63 5.904 2.529M24.137 94.441v-6.887h5.903v2.249h-1.546l-3.232 4.638zm8.574-4.638v-2.25h3.093v2.25zm5.06 0v-2.25h2.67v2.25zm19.96 4.573c-.375.022-1.125-.16-1.125-1.06s.75-1.125 1.125-1.125h3.091v2.185z"/></svg>