<svg xmlns="http://www.w3.org/2000/svg" viewBox="0 0 126 126">
  <g fill="#fff">
    <path d="M31.926594 30.039633H44.972442L50.600423 25.89862L44.914229 21.757608H31.926594L27.305347 17.025022H8.023547V34.772219H27.305347Z" />
    <path d="M96.496953 34.15764L105.04156 25.613033V31.468682L109.405424 35.937684L106.81628 38.6937V45.70874L118.064128 34.460894L112.992056 20.870248L110.430065 26.194407L110.365719 17.297441L99.125827 6.104284V18.538134L91.435375 26.160228V36.224977L100.604761 45.458028L100.964958 38.733294Z" />
  </g>
  <path fill="#49adc9" d="M81 103v4l6 6 1 1H65l1-1 6-6v-8l6-7V78h9v18Zm-7-16-6 7H58l-6-7V74H39V58l4-4h8l5-4h14l5 4h8l4 4v16H74v13Zm-4-29H56v12h14V58ZM48 92l6 7v8l6 6 1 1H38l1-1 6-6v-4l-6-7V78h9v14Z" />
</svg>
