<svg xmlns="http://www.w3.org/2000/svg" viewBox="0 0 126 126" fill="none"><path fill="#fff" d="M96.016 44 87 35.444v-8.556l7.377-7V9l10.246 9.722v10.5l3.279-7.778L112 34.278 101.754 44v-5.834l2.869-2.722-4.508-4.278v-5.444l-8.607 8.167 4.508 4.277z"/><path fill="#49adc9" d="M81 103v4l6 6 1 1H65l1-1 6-6v-8l6-7V78h9v18zm-7-16-6 7H58l-6-7V74H39V58l4-4h8l5-4h14l5 4h8l4 4v16H74zm-4-29H56v12h14zM48 92l6 7v8l6 6 1 1H38l1-1 6-6v-4l-6-7V78h9z"/><path fill="#fff" fill-rule="evenodd" d="M42.569 30.91H29.706L26.49 35H8V17h18.49l3.216 4.09h12.863L49 26z" clip-rule="evenodd"/></svg>