<svg xmlns="http://www.w3.org/2000/svg" viewBox="0 0 126 126"><g fill-rule="evenodd"><path d="M99.866 31A54.163 54.163 0 0 0 84.65 16H121v15H99.866zm1.691 24v14H68.74L85 51 50.9 16h17.69s32.967-.032 32.967 39zm-5.918 35h-37.2V74h37.2v16zm6.763 4 10.99 16H39l10.99-16h52.41z" fill="#679552"/><path d="M54.4 70.99 41.575 59.333l-.591-12.24 8.782-8.6L53.1 23l10.89 13.8.345 7.14 3.881-4.274L79 51.417 61.538 70.65l-.394-8.16 3.881-4.274-6.265-2.769-.394-8.16-6.644 10.54 3.256 3.934.443 9.18z" fill="#fff"/></g><circle cx="18" cy="24" r="9" fill="#fff"/><path d="M5 34v40h5v37h16V74h5V34H5Z" fill-rule="evenodd" fill="#fff"/></svg>