<svg xmlns="http://www.w3.org/2000/svg" viewBox="0 0 126 126"><path d="M90.872 67.876v4.376l-19.256-.262-2.888 2.888H51.4v-9.627h17.33l2.888 2.888zm-45.277 36.848H32.169s-.883 7.7 6.713 7.7 6.713-7.7 6.713-7.7zm17.33 0H49.5s-.883 7.7 6.713 7.7 6.712-7.7 6.712-7.7zm29.846 0H79.345s-.883 7.7 6.713 7.7 6.713-7.7 6.713-7.7zm-65.443-3.851V78.729h44.288l25.995 8.665v13.479H27.328z" fill="#49adc9" fill-rule="evenodd"/><path d="M74.5 51.772H56.047l13.478-13.479H74.5s7.7-.66 7.7 6.739-7.7 6.74-7.7 6.74zm-23.9 0h-7.867V38.293h21.346zm23.9-18.293H56.047L69.525 20H74.5s7.7-.66 7.7 6.739-7.7 6.74-7.7 6.74zm-23.9 0h-7.867V20h21.346z" fill-rule="evenodd" fill="#fff"/></svg>