<svg xmlns="http://www.w3.org/2000/svg" viewBox="0 0 126 126" fill="#fff">
	<path fill="#de7b6c" d="M99 120a91 91 0 0 0-4.5-27h15.3a53.7 53.7 0 0 1 7.2 27H99Zm-8.3-35.7L97 78a54 54 0 0 1 10.9 12H93.4a55.8 55.8 0 0 0-2.7-5.7ZM29 78l7 6.7a56 56 0 0 0-2.5 5.3H18.1a54 54 0 0 1 11-12Zm-1 42H9a53.7 53.7 0 0 1 7.2-27h16.3c-2.4 7.1-4.1 16-4.4 27ZM63 174a53.7 53.7 0 0 1-32.6-11h65.2A53.7 53.7 0 0 1 63 174Zm33-54H65V93h.1l8.9 8 8-8h9.5a85.5 85.5 0 0 1 4.6 27ZM35.6 93h9.2l8.3 8 8.9-8h.1v27H31a85.5 85.5 0 0 1 4.5-27Zm1.2-3 1.5-3.3 3.4 3.3h-5Zm52-3.6 1.6 3.6H85Z"/>
	<path d="m75.7 79 3 3 7.2-7 5 5-17.2 17-5-5 7-7-3-3-5.1 4H59l-5-4-3 3 7 7-5 5-17-17 5-5 7 7 3-3-18-17V41h7c-.5-23 22-24 22-24h2.5S87.5 18 87 41H94v21Zm-4.2-2a2.5 2.5 0 1 0-2.5-2.5 2.5 2.5 0 0 0 2.5 2.5Zm0-9a2.5 2.5 0 1 0-2.5-2.5 2.5 2.5 0 0 0 2.5 2.5Zm-8 14a2.5 2.5 0 1 0-2.5-2.5 2.5 2.5 0 0 0 2.5 2.5Zm0-9a2.5 2.5 0 1 0-2.5-2.5 2.5 2.5 0 0 0 2.5 2.5Zm0-10a2.5 2.5 0 1 0-2.5-2.5 2.5 2.5 0 0 0 2.5 2.5Zm-8 14a2.5 2.5 0 1 0-2.5-2.5 2.5 2.5 0 0 0 2.5 2.5Zm0-9a2.5 2.5 0 1 0-2.5-2.5 2.5 2.5 0 0 0 2.5 2.5ZM82 41H45v14l8 6 9-7h2.6l9.2 7 8.2-6V41Z"/>
</svg>