<svg id="HD2-OES" xmlns="http://www.w3.org/2000/svg" xmlns:xlink="http://www.w3.org/1999/xlink" viewBox="0 0 126 126">
  <defs>
    <style>
      .cls-1 {
        fill: #de7b6c;
      }

      .cls-1, .cls-2 {
        fill-rule: evenodd;
      }

      .cls-2 {
        fill: #fff;
      }
    </style>
  </defs>
  
  <g id="HD2-OES-2" data-name="HD2-OES">
    <g>
      <path class="cls-1" d="M98.924,120c-0.329-11.02-2-19.88-4.454-27h15.288A53.738,53.738,0,0,1,117,120H98.924ZM74.191,67.2A53.991,53.991,0,0,1,107.9,90H93.357C88.144,77.027,80.311,70.472,74.191,67.2ZM33.635,90H18.1A53.974,53.974,0,0,1,53.38,66.9C47.181,70.059,39.013,76.6,33.635,90Zm-5.559,30H9a53.732,53.732,0,0,1,7.242-27H32.523C30.077,100.12,28.4,108.98,28.076,120ZM63,174a53.726,53.726,0,0,1-32.644-11H95.644A53.726,53.726,0,0,1,63,174Zm33.089-54H65V93H91.509A85.481,85.481,0,0,1,96.089,120ZM90.327,90H65V87h0l7.619-17.143C81.348,74.323,86.863,81.88,90.327,90ZM62,120H30.912A85.548,85.548,0,0,1,35.5,93H62v27Zm0-53V90H36.681C41.065,79.73,48.7,70.343,62,67Z"/>
      <path class="cls-2" d="M65,79L81,37,65,42V12L49,55l16-5V79Z"/>
      <path class="cls-2" d="M33.077,65.723l3.125,5a52.042,52.042,0,0,0-9.158,6.32l-3.716-3.716A41.661,41.661,0,0,1,33.077,65.723ZM46.9,60.4l2,5.342a54.8,54.8,0,0,0-10.218,3.707L35.745,64.3A50.936,50.936,0,0,1,46.9,60.4ZM61,58.94v5.127A54.166,54.166,0,0,0,52,65l-1.626-5.263A63.885,63.885,0,0,1,61,58.94Zm18.283,2.136a60.157,60.157,0,0,1,10.909,3.6l-2.6,4.333a51.217,51.217,0,0,0-10.117-3.438L78.667,62Zm23.433,12.208L99,77a31.752,31.752,0,0,0-8.822-6.683l2.945-4.208A35.432,35.432,0,0,1,102.716,73.284Z"/>
    </g>
  </g>
</svg>
