<svg xmlns="http://www.w3.org/2000/svg" viewBox="0 0 126 126" fill="#fff">
	<path fill="#de7b6c" d="M94.5 93h15.3a53.7 53.7 0 0 1 7.2 27H99c-.4-11-2-19.9-4.5-27ZM74.2 67.2A54 54 0 0 1 107.9 90H93.4c-5.3-13-13-19.5-19.2-22.8ZM90.3 90H65V67a37 37 0 0 1 25.3 23Zm-54.8 3H62v27H31a85.5 85.5 0 0 1 4.5-27ZM62 67v23H36.7A37 37 0 0 1 62 67ZM33.6 90H18.1a54 54 0 0 1 35.3-23.1A42.4 42.4 0 0 0 33.6 90Zm-5.5 30H9a53.7 53.7 0 0 1 7.2-27h16.3c-2.4 7.1-4.1 16-4.4 27Zm67.5 43a54 54 0 0 1-65.2 0h65.2Zm-4-70a85.5 85.5 0 0 1 4.5 27H65V93h26.5Z"/>
	<path d="M54 39V11H29l18 28h7ZM73 11h25L80 39h-7V11Z"/>
	<path d="M59 11h9v33h9L64 64 50 44h9"/>
</svg>