<svg id="HD2-OSS" xmlns="http://www.w3.org/2000/svg" xmlns:xlink="http://www.w3.org/1999/xlink" viewBox="0 0 126 126">
  <defs>
    <style>
      .cls-1 {
        fill: #de7b6c;
      }

      .cls-1, .cls-2 {
        fill-rule: evenodd;
      }

      .cls-2 {
        fill: #fff;
      }
    </style>
  </defs>
  <g id="HD2-OSS-2" data-name="HD2-OSS">
    <path id="base_copy" data-name="base copy" class="cls-1" d="M94.47,93h15.288A53.738,53.738,0,0,1,117,120H98.924C98.595,108.98,96.92,100.12,94.47,93ZM74.191,67.2A53.991,53.991,0,0,1,107.9,90H93.357C88.144,77.027,80.311,70.472,74.191,67.2ZM90.327,90H65V67C78.307,70.34,85.946,79.73,90.327,90ZM35.5,93H62v27H30.912A85.548,85.548,0,0,1,35.5,93ZM62,67V90H36.681C41.065,79.73,48.7,70.343,62,67ZM33.635,90H18.1A53.974,53.974,0,0,1,53.38,66.9C47.181,70.059,39.013,76.6,33.635,90Zm-5.559,30H9a53.732,53.732,0,0,1,7.242-27H32.523C30.077,100.12,28.4,108.98,28.076,120Zm67.569,43a53.939,53.939,0,0,1-65.289,0H95.644ZM91.509,93a85.481,85.481,0,0,1,4.58,27H65V93H91.509Z"/>
    <path id="Shape_33_copy" data-name="Shape 33 copy" class="cls-2" d="M106,83S91.263,63.5,63,64.04A0.191,0.191,0,0,1,62.906,64C34.565,63.509,19,84,19,84s-4.933-15.044,1-22c7.328-8.591,19.243-5.135,21-5,2.958,0.228,2-1,2-1s-2.795-3.617-7-3c-9.521,1.4-5-6-5-6,5.867-9.758,19.618-6.086,23.182-5.264C55.489,42.036,55,41,55,41s-5.888-2.254-6-5c-0.4-9.743,14-8,14-8h0.531v0.075c2.588-.2,13.746-0.565,13.4,8.031-0.111,2.739-5.972,4.988-5.972,4.988s-0.486,1.034.814,0.734C75.319,41.009,89,37.345,94.844,47.08c0,0,4.5,7.381-4.976,5.986-4.185-.616-6.967,2.993-6.967,2.993s-0.954,1.225,1.99,1c1.748-.135,13.608-3.583,20.9,4.988C111.7,68.984,106,83,106,83Z"/>
  </g>
</svg>
