<svg id="HD2-OGS" xmlns="http://www.w3.org/2000/svg" xmlns:xlink="http://www.w3.org/1999/xlink" viewBox="0 0 126 126">
  <defs>
    <style>
      .cls-1 {
        fill: #de7b6c;
      }

      .cls-1, .cls-2 {
        fill-rule: evenodd;
      }

      .cls-2 {
        fill: #fff;
      }
    </style>
  </defs>
  <g>
    <path class="cls-1" d="M98.924,120c-0.329-11.02-2-19.88-4.454-27h15.288A53.738,53.738,0,0,1,117,120H98.924ZM90.688,84.312l6.267-6.267A54.084,54.084,0,0,1,107.9,90H93.357A55.763,55.763,0,0,0,90.688,84.312ZM29.123,77.975L36.093,84.7A56.09,56.09,0,0,0,33.635,90H18.1A54.051,54.051,0,0,1,29.123,77.975ZM28.076,120H9a53.732,53.732,0,0,1,7.242-27H32.523C30.077,100.12,28.4,108.98,28.076,120ZM63,174a53.726,53.726,0,0,1-32.644-11H95.644A53.726,53.726,0,0,1,63,174Zm33.089-54H65V93h0.111L74,101l8-8h9.509A85.481,85.481,0,0,1,96.089,120ZM35.5,93h9.2l8.3,8,8.889-8H62v27H30.912A85.548,85.548,0,0,1,35.5,93Zm1.182-3c0.469-1.1.984-2.186,1.531-3.259L41.593,90H36.681Zm51.936-3.618q0.926,1.782,1.71,3.618H85Z"/>
    <path class="cls-2" d="M75.724,79.007l3.046,3,7.108-7,5.077,5L73.693,97l-5.077-5,7.107-7-3.046-3L67.6,86H63.032v0H59l-5-4-3,3,7,7-5,5L36,80l5-5,7,7,3-3L33,62V41s4.16,0.03,7,0C39.54,17.925,62,17,62,17l1.532-.028v0.041l1.022,0.018S87.36,17.956,86.893,41.022c2.883,0.03,7.108,0,7.108,0V62.014ZM71.5,77A2.5,2.5,0,1,0,69,74.5,2.5,2.5,0,0,0,71.5,77Zm0-9A2.5,2.5,0,1,0,69,65.5,2.5,2.5,0,0,0,71.5,68Zm-8,14A2.5,2.5,0,1,0,61,79.5,2.5,2.5,0,0,0,63.5,82Zm0-9A2.5,2.5,0,1,0,61,70.5,2.5,2.5,0,0,0,63.5,73Zm0-10A2.5,2.5,0,1,0,61,60.5,2.5,2.5,0,0,0,63.5,63Zm-8,14A2.5,2.5,0,1,0,53,74.5,2.5,2.5,0,0,0,55.5,77Zm0-9A2.5,2.5,0,1,0,53,65.5,2.5,2.5,0,0,0,55.5,68ZM82,41H45V55l8,6,9-7h2.57L73.8,61,82,55V41Z"/>
    <path class="cls-2" d="M-578-358"/>
  </g>
</svg>
