<svg xmlns="http://www.w3.org/2000/svg" viewBox="0 0 126 126" fill="#fff">
<path d="M63 109H34L21 95l15 2-2-12 11 11V76l14 13s2.5-21.5 3-30c.4-6.6-4-14-4-14l-11 1c-2.3.2-9.1-1-9-9s8-6 8-6 1.2-7 11-5c0 0-.9-5 6-5v88Zm0 0h29l13-14-15 2 2-12-11 11V76L67 89s-2.5-21.5-3-30c-.4-6.6 4-14 4-14l12 1c2.3.2 8.1-1 8-9s-8-6-8-6-1.2-7-11-5c0 0 .9-5-6-5v88Z"/>
<path fill-rule="evenodd" d="M63 53c16.6 0 30 3.6 30 8s-13.4 8-30 8-30-3.6-30-8 13.4-8 30-8Zm0 4c12.2 0 22 1.8 22 4s-9.8 4-22 4-22-1.8-22-4 9.9-4 22-4Z"/>
<path fill="#c9b269" d="M4 122v-20l20 20H4Zm118 0v-20l-20 20h20Zm0-118v20L102 4h20ZM4 4v20L24 4H4Z"/>
</svg>