<svg id="Hellbomb" xmlns="http://www.w3.org/2000/svg" xmlns:xlink="http://www.w3.org/1999/xlink" viewBox="0 0 126 126">
  <defs>
    <style>
      .cls-1 {
        fill: #fff;
      }

      .cls-1, .cls-2 {
        fill-rule: evenodd;
      }

      .cls-2 {
        fill: #c9b269;
      }
    </style>
  </defs>
  <g>
    <path id="Shape_5_copy" data-name="Shape 5 copy" class="cls-1" d="M63,109H34L21,95l15,2L34,85,45,96V76L59,89s2.51-21.523,3-30c0.384-6.646-4-14-4-14s-0.069-.025-11,1c-2.324.218-9.131-.905-9-9s8-6,8-6,1.195-6.906,11-5c0,0-.88-5,6-5v88Zm0,0H92l13-14L90,97l2-12L81,96V76L67,89s-2.51-21.523-3-30c-0.384-6.646,4-14,4-14s-0.077.011,12,1c2.326,0.19,8.131-.905,8-9s-8-6-8-6-1.195-6.906-11-5c0,0,.88-5-6-5v88Z"/>
    <path class="cls-1" d="M63,53c16.569,0,30,3.582,30,8s-13.431,8-30,8-30-3.582-30-8S46.432,53,63,53Zm0,4c12.15,0,22,1.791,22,4s-9.85,4-22,4-22-1.791-22-4S50.85,57,63,57Z"/>
    <path class="cls-2" d="M4,122V102l20,20H4Zm118,0V102l-20,20h20ZM122,4V24L102,4h20ZM4,4V24L24,4H4Z"/>
  </g>
</svg>
