<svg xmlns="http://www.w3.org/2000/svg" viewBox="0 0 126 126" fill-rule="evenodd"><path d="M4 122v-20l20 20H4Zm118 0v-20l-20 20h20Zm0-118v20L102 4h20ZM4 4v20L24 4H4Z" fill="#c9b269"/><path d="M93.355 75.474v19.869l-8.515 7.947H41.7l-8.52-7.947V75.474l5.109-6.812V51.631l-5.109-6.812V30.627h9.651v5.109h-4.542v7.948l4.541 6.245v20.436l-4.541 6.812v15.9l5.677 5.677h38.6l5.677-5.677v-15.9L83.7 70.365V49.928l4.541-6.245v-7.947H83.7v-5.109h9.651v14.192l-5.109 6.812v17.031zM74.621 94.207H51.914V87.4l-4.541-4.541h31.79L74.621 87.4v6.812zM73.486 53.9l5.677-4.541v28.953h-5.677V53.9zM47.372 78.312V49.36l5.677 4.54v24.412h-5.677zm23.843 0H55.32V52.766l-7.948-6.245v-15.9h31.79v15.9l-7.948 6.245v25.546zm-19.3-52.227 3.974-4.541h14.76l3.974 4.541H51.914z" fill="#fff"/></svg>