<svg xmlns="http://www.w3.org/2000/svg" viewBox="0 0 126 126" fill-rule="evenodd"><path d="M4 122v-20l20 20H4Zm118 0v-20l-20 20h20Zm0-118v20L102 4h20ZM4 4v20L24 4H4Z" fill="#c9b269"/><path d="M83.632 80.747a6.371 6.371 0 0 1 1.7 3.97 29.012 29.012 0 0 1-1.7 10.777H42.866a28.918 28.918 0 0 1-1.7-10.779 6.363 6.363 0 0 1 1.7-3.971l1.7-2.269V36.491c-3.009 0-2.837-1.135-2.837-1.135 0-2.885 1.7-2.837 1.7-2.837H63.29v.016h19.777s1.7-.049 1.7 2.836c0 0 .172 1.134-2.825 1.134v41.973zm-5.086-43.674s-4.514 1.134-15.257 1.134v-.014c-10.786 0-15.318-1.135-15.318-1.135V79.04a2.57 2.57 0 0 0 1.7 0 7.5 7.5 0 0 1 2.837-.567s.567.023.567 1.7a3.388 3.388 0 0 0 .567 2.269H72.9a3.4 3.4 0 0 0 .565-2.269c0-1.679.565-1.7.565-1.7a7.443 7.443 0 0 1 2.825.567 2.551 2.551 0 0 0 1.7 0V37.073zm3.954-7.941H63.29v-.016H44c-1.734 0-1.581-2.024.567-3.4 4.2-2.695 18.722-2.269 18.722-2.269v.013s14.467-.425 18.647 2.269c2.141 1.379 2.293 3.403.564 3.403zM63.29 97.763h18.082s-3.39 4.538-10.736 4.538H55.914c-7.375 0-10.779-4.539-10.779-4.539H63.29zM55.347 71.1a9.161 9.161 0 0 1-1.7-5.673c.217-3.2 2.07-7.65 5.673-8.51 0 0 .3-.05 0-.567-.441-.771-1.862-1-1.7-1.7h2.837s-2.119-2.536-1.7-4.539a4.136 4.136 0 0 0 2.269 1.7 4.235 4.235 0 0 0 1.7-1.7c.2-.824 2.308-5.572 2.837-6.808.685-1.6 3.992-.3 5.106 2.837 1.134 3.2 1.53 8.39 3.971 9.645 0 0-1.668.9-1.7 1.7s-.694 5.752-4.54 6.805A11.332 11.332 0 0 0 61 70s-2.726 3.769-3 4c-.254.214-2.239 1.843-2 1a5.833 5.833 0 0 0-.653-3.9z" fill="#fff"/></svg>