<svg xmlns="http://www.w3.org/2000/svg" viewBox="0 0 126 126" fill="#fff" xmlns:helldivers2="http://example.com/custom">
  <path fill="#c9b269" d="M82 52V24h30L96.4 52H82Zm-50.4 0L16 24h30v28H31.6Zm44.7 36L64 110 51.7 88h24.6Z"/>
  <path d="M34 84V56h9v10h10V56h9v28H34ZM66 84V56h9v10h10V56h9v28H66ZM50 52V24h9v10h10V24h9v28H50Z"/>
  <path fill="#c9b269" d="M5 123v-20l20 20H5Zm118 0v-20l-20 20h20Zm0-118v20L103 5h20ZM5 5v20L25 5H5Z"/>
  <metadata>
    <helldivers2:data>
      <helldivers2:Name>Resupply</helldivers2:Name>
      <helldivers2:Combination>⯆⯆⯅⯈</helldivers2:Combination>
      <helldivers2:Description>Quick-firing support weapon, best used when stationary.</helldivers2:Description>
      <helldivers2:Level>1</helldivers2:Level>
      <helldivers2:Category>General</helldivers2:Category>
    </helldivers2:data>
  </metadata>
</svg>