<svg xmlns="http://www.w3.org/2000/svg" viewBox="0 0 126 126" fill="#fff">
	<g fill="#c9b269">
		<path d="M100.7 119H99a91 91 0 0 0-4.4-27h15.3a53.8 53.8 0 0 1 5.3 12.7ZM74.2 66.2A54 54 0 0 1 107.9 89H93.4c-5.3-13-13-19.5-19.2-22.8ZM90.3 89H65V66a37 37 0 0 1 25.3 23Zm-54.8 3H62v27H31a85.5 85.5 0 0 1 4.5-27ZM62 66v23H36.7A37 37 0 0 1 62 66ZM33.6 89H18.1a54 54 0 0 1 35.3-23.1A42.4 42.4 0 0 0 33.6 89Zm-1 3c-2.5 7.1-4.2 16-4.5 27h-3L11 104.7A53.8 53.8 0 0 1 16.2 92h16.3ZM65 92h26.5a85.5 85.5 0 0 1 4.6 27H65V92Z"/>
		<path d="M4 122v-20l20 20H4Zm118 0v-20l-20 20h20Zm0-118v20L102 4h20ZM4 4v20L24 4H4Z"/>
	</g>
	<path d="M54 38V10H29l18 28h7ZM73 10h25L80 38h-7V10Z"/>
	<path d="M59 10h9v33h9L64 63 50 43h9"/>
</svg>