<svg id="SEAF_Artillery" data-name="SEAF Artillery" xmlns="http://www.w3.org/2000/svg" xmlns:xlink="http://www.w3.org/1999/xlink" viewBox="0 0 126 126">
  <defs>
    <style>
      .cls-1 {
        fill: #c9b269;
      }

      .cls-1, .cls-2, .cls-3 {
        fill-rule: evenodd;
      }

      .cls-3 {
        fill: #fff;
      }
    </style>
  </defs>
  <g id="HD2-OPS">
    <path id="base" class="cls-1" d="M94.47,92h15.288A53.737,53.737,0,0,1,117,119H98.924C98.595,107.98,96.92,99.12,94.47,92ZM74.191,66.2A53.991,53.991,0,0,1,107.9,89H93.357C88.144,76.027,80.311,69.472,74.191,66.2ZM90.327,89H65V66C78.307,69.34,85.946,78.73,90.327,89ZM35.5,92H62v27H30.912A85.548,85.548,0,0,1,35.5,92ZM62,66V89H36.681C41.065,78.73,48.7,69.343,62,66ZM33.635,89H18.1A53.974,53.974,0,0,1,53.38,65.9C47.181,69.059,39.013,75.6,33.635,89Zm-5.559,30H9a53.731,53.731,0,0,1,7.242-27H32.523C30.077,99.12,28.4,107.98,28.076,119Zm67.569,43a53.939,53.939,0,0,1-65.289,0H95.644ZM91.509,92a85.481,85.481,0,0,1,4.58,27H65V92H91.509Z"/>
    <path class="cls-2" d="M4,101.091L24.909,122,27,119.909,6.091,99Z"/>
    <path id="Shape_10_copy" data-name="Shape 10 copy" class="cls-2" d="M122,101.091L101.091,122,99,119.909,119.909,99Z"/>
    <path class="cls-3" d="M54,38V10H29L47,38h7Z"/>
    <path class="cls-3" d="M73,10H98L80,38H73V10Z"/>
    <path class="cls-3" d="M59,10h9V43h9L64,63,50,43h9"/>
    <path id="Shape_4_copy" data-name="Shape 4 copy" class="cls-1" d="M4,122V102l20,20H4Zm118,0V102l-20,20h20ZM122,4V24L102,4h20ZM4,4V24L24,4H4Z"/>
  </g>
</svg>
