<svg xmlns="http://www.w3.org/2000/svg" viewBox="0 0 126 126" fill-rule="evenodd" xmlns:helldivers2="http://example.com/custom">
  <path fill="#c9b269" d="M94.47 92h15.288A53.737 53.737 0 0 1 117 119H98.924c-.329-11.02-2.004-19.88-4.454-27zM74.191 66.2A53.991 53.991 0 0 1 107.9 89H93.357c-5.213-12.973-13.046-19.528-19.166-22.8zM90.327 89H65V66c13.307 3.34 20.946 12.73 25.327 23zM35.5 92H62v27H30.912A85.548 85.548 0 0 1 35.5 92zM62 66v23H36.681C41.065 78.73 48.7 69.343 62 66zM33.635 89H18.1a53.974 53.974 0 0 1 35.28-23.1c-6.199 3.159-14.367 9.7-19.745 23.1zm-5.559 30H9a53.731 53.731 0 0 1 7.242-27h16.281c-2.446 7.12-4.123 15.98-4.447 27zm67.569 43a53.939 53.939 0 0 1-65.289 0h65.288zm-4.136-70a85.481 85.481 0 0 1 4.58 27H65V92h26.509z"/>
  <path fill="#fff" d="M54 38V10H29l18 28h7zm19-28h25L80 38h-7V10zm-14 0h9v33h9L64 63 50 43h9"/>
  <metadata>
    <helldivers2:data>
      <helldivers2:Name>Seaf Artillery</helldivers2:Name>
      <helldivers2:Combination>⯈⯅⯅⯆</helldivers2:Combination>
      <helldivers2:Description>The S.E.A.F (Super Earth Armed Forces) artillery cannon is a large emplacement which can hold a total of five S.E.A.F shells of varying types. There may only be one S.E.A.F artillery position on a single mission at once</helldivers2:Description>
      <helldivers2:Level>8</helldivers2:Level>
      <helldivers2:Category>Orbital</helldivers2:Category>
    </helldivers2:data>
  </metadata>
</svg>