<svg id="HD2-OPS" xmlns="http://www.w3.org/2000/svg" xmlns:xlink="http://www.w3.org/1999/xlink" viewBox="0 0 126 126">
  <defs>
    <style>
      .cls-1 {
        fill: #c9b269;
      }

      .cls-1, .cls-2 {
        fill-rule: evenodd;
      }

      .cls-2 {
        fill: #fff;
      }
    </style>
  </defs>
  <path id="Shape_4_copy" data-name="Shape 4 copy" class="cls-1" d="M100.727,119h-1.8c-0.329-11.02-2-19.88-4.454-27h15.288a53.845,53.845,0,0,1,5.306,12.663ZM74.191,66.2A53.991,53.991,0,0,1,107.9,89H93.357C88.144,76.027,80.311,69.472,74.191,66.2ZM90.327,89H65V66C78.307,69.34,85.946,78.73,90.327,89ZM35.5,92H62v27H30.912A85.548,85.548,0,0,1,35.5,92ZM62,66V89H36.681C41.065,78.73,48.7,69.343,62,66ZM33.635,89H18.1A53.974,53.974,0,0,1,53.38,65.9C47.181,69.059,39.013,75.6,33.635,89Zm-1.112,3c-2.447,7.12-4.118,15.98-4.447,27H25.182L10.915,104.733A53.836,53.836,0,0,1,16.242,92H32.523ZM65,92H91.509a85.481,85.481,0,0,1,4.58,27H65V92Z"/>
  <path id="Shape_4_copy_3" data-name="Shape 4 copy 3" class="cls-1" d="M4,122V102l20,20H4Zm118,0V102l-20,20h20ZM122,4V24L102,4h20ZM4,4V24L24,4H4Z"/>
  <path class="cls-2" d="M54,38V10H29L47,38h7Z"/>
  <path class="cls-2" d="M73,10H98L80,38H73V10Z"/>
  <path class="cls-2" d="M59,10h9V43h9L64,63,50,43h9"/>
</svg>
