<svg xmlns="http://www.w3.org/2000/svg" viewBox="0 0 126 126" fill="#fff">
<path fill="#c9b269" d="M4 122v-20l20 20H4Zm118 0v-20l-20 20h20Zm0-118v20L102 4h20ZM4 4v20L24 4H4Z"/>
<path d="m73.9 81.2-9-9h-1.5l-29.6 29.6s-2.3 2-5.7-1.3v-.1c0-.1 0 0-.1 0-3.3-3.5-1.4-5.7-1.4-5.7L56.3 65v-1.4l-9.1-9.2-.1-2.9L64.8 34h2.8l9.9 9.9 2.1-2.2c1.8-1.7 5.1 2.3 5.1 2.3.7.6 3.6 3.4 2 5l-2 2 9.8 9.9v2.8L76.7 81.3Z"/>
<path d="m54.9 38.5-2.2 2.1L44 49s-1.4 1.4-4-1.3c0 0-2-2.5-1-3.7 2-2.2 6.3-7.3 8-9l2.2-2.1c1.8-1.8 6.5-6 8.8-7.9 1.6-1.3 4 .8 4 .8 2.6 2.8 1 4.2 1 4.2Z"/>
<path d="m94.9 79.5-2.2 2.1L84 90s-1.4 1.4-4-1.3c0 0-2-2.5-1-3.7 2-2.2 6.3-7.3 8-9l2.2-2.1c1.8-1.8 6.5-6 8.8-7.9 1.6-1.3 4 .8 4 .8 2.6 2.8 1 4.2 1 4.2Z"/>
</svg>