<svg id="Seismic_Probe" data-name="Seismic Probe" xmlns="http://www.w3.org/2000/svg" xmlns:xlink="http://www.w3.org/1999/xlink" viewBox="0 0 126 126">
  <defs>
    <style>
      .cls-1 {
        fill: #c9b269;
      }

      .cls-1, .cls-2 {
        fill-rule: evenodd;
      }

      .cls-2 {
        fill: #fff;
      }
    </style>
  </defs>
  <path class="cls-1" d="M4,122V102l20,20H4Zm118,0V102l-20,20h20ZM122,4V24L102,4h20ZM4,4V24L24,4H4Z"/>
  <g>
    <path id="Shape_18_copy" data-name="Shape 18 copy" class="cls-2" d="M73.9,81.2l-9.051-9.051-1.408.006L33.754,101.845s-2.247,1.861-5.612-1.382l-0.006.006c-0.026-.026-0.045-0.05-0.07-0.076s-0.049-.043-0.075-0.069l0.006,0c-3.274-3.4-1.414-5.646-1.414-5.646l29.7-29.7V63.561l-9.132-9.132L47.09,51.54,64.768,33.862H67.6l9.9,9.9,2.121-2.121c1.768-1.768,5.088,2.26,5.088,2.26l-0.011.011c0.714,0.628,3.63,3.364,2.073,4.922l-2.121,2.121,9.812,9.812-0.012,2.815L76.775,81.252Z"/>
    <path id="Shape_19_copy" data-name="Shape 19 copy" class="cls-2" d="M54.868,38.519L52.747,40.64,44,49s-1.384,1.433-3.981-1.289c0,0-2.054-2.551-1.019-3.711,1.97-2.208,6.34-7.267,8.09-9.016l2.121-2.121C50.961,31.113,55.72,26.886,58,25c1.629-1.348,3.939.791,3.939,0.791C64.567,28.638,63,30,63,30Z"/>
    <path id="Shape_19_copy_2" data-name="Shape 19 copy 2" class="cls-2" d="M94.868,79.519L92.747,81.64,84,90s-1.384,1.433-3.981-1.289c0,0-2.055-2.551-1.019-3.711,1.97-2.208,6.34-7.267,8.09-9.016l2.121-2.121C90.961,72.113,95.72,67.886,98,66c1.629-1.348,3.939.791,3.939,0.791C104.567,69.638,103,71,103,71Z"/>
  </g>
</svg>
