<svg xmlns="http://www.w3.org/2000/svg" viewBox="0 0 126 126">
<path fill="#c9b269" d="M4 122v-20l20 20H4Zm118 0v-20l-20 20h20Zm0-118v20L102 4h20ZM4 4v20L24 4H4Z"/>
<path fill="#c9b269" d="M63 48s-9.2.5-14 6c0 0-2.5 1.5-4 0s0-4 0-4a27.8 27.8 0 0 1 18-7v5Zm0 0s9.4.7 14.3 6.3c0 0 2.5 1.5 4 0s0-4 0-4A28.2 28.2 0 0 0 63 43v5Z"/>
<path fill="#c9b269" d="M63 39s13.1.4 18 6c0 0 4.8 3.8 6.3 2.3.6-.6 1.8-1.8.7-3.3-1.6-2.3-6-5-6-5a39 39 0 0 0-19-5v5Zm0 0s-12.9.5-17.7 6.3c0 0-4.7 4-6.2 2.4-.6-.7-1.7-1.9-.7-3.4 1.6-2.4 6-5.2 6-5.2A37.2 37.2 0 0 1 63 34v5Z"/>
<path fill="#c9b269" d="M63 30s-18.2 2.2-23 8c0 0-4.4 4.5-7 3-.7-.4-1-2.4 0-4 1.6-2.3 9-7 9-7s10.2-5 21-5v5Zm0 0s18.4 2 23.2 7.8c0 0 4.5 4.3 7.1 2.9.8-.4 1.1-2.4 0-4-1.6-2.2-9-6.8-9-6.8S73.8 25 63 25v5Z"/>
<path fill="#fff" d="M39 70c-.2-3.3-.2-3.9-1-5s-2 0-2 0c-3.1 4.5 4 8 4 8a19.7 19.7 0 0 1 5 4c5 4.8 4 10 4 10s1.6 11-11 11-12-10-12-10v-5h9a15 15 0 0 0 2 7c.8 1.1 2 0 2 0 3-4.5-4-8-4-8a19.6 19.6 0 0 1-5-4c-5-4.8-4-10-4-10s-1.7-11 11-11 11 13 11 13h-9Z"/>
<path fill="#fff" d="M63 98s-12 .6-12-17v-6c0-19.7 12-18 12-18s12-2 12 18v6c0 17.6-12 17-12 17Zm2-21v-9s0-4-2-4-2 4-2 4v19s0 4 2 4 2-4 2-4V77Z"/>
<path fill="#fff" d="M90 70c-.2-3.3-.2-3.9-1-5s-2 0-2 0c-3.1 4.5 4 8 4 8a19.7 19.7 0 0 1 5 4c5 4.8 4 10 4 10s1.6 11-11 11-12-10-12-10v-5h9a15 15 0 0 0 2 7c.8 1.1 2 0 2 0 3-4.5-4-8-4-8a19.6 19.6 0 0 1-5-4c-5-4.8-4-10-4-10s-1.7-11 11-11 11 13 11 13h-9Z"/>
</svg>