<svg id="SOS_Beacon" data-name="SOS Beacon" xmlns="http://www.w3.org/2000/svg" xmlns:xlink="http://www.w3.org/1999/xlink" viewBox="0 0 126 126">
  <defs>
    <style>
      .cls-1 {
        fill: #c9b269;
      }

      .cls-1, .cls-2 {
        fill-rule: evenodd;
      }

      .cls-2 {
        fill: #fff;
      }
    </style>
  </defs>
  <g id="HD2-OPS">
    <path id="Shape_4_copy_2" data-name="Shape 4 copy 2" class="cls-1" d="M4,122V102l20,20H4Zm118,0V102l-20,20h20ZM122,4V24L102,4h20ZM4,4V24L24,4H4Z"/>
    <path id="Shape_11_copy" data-name="Shape 11 copy" class="cls-1" d="M63,48s-9.206.521-14,6c0,0-2.527,1.473-4,0s0-4,0-4a27.841,27.841,0,0,1,18-7v5Zm0,0s9.376,0.684,14.258,6.324c0,0,2.574,1.516,4.074,0s0-4.118,0-4.118A28.213,28.213,0,0,0,63,43v5Z"/>
    <path id="Shape_11_copy_3" data-name="Shape 11 copy 3" class="cls-1" d="M63,39s13.118,0.36,18,6c0,0,4.832,3.841,6.332,2.324,0.6-.608,1.768-1.8.668-3.324-1.644-2.286-6-5-6-5a39.028,39.028,0,0,0-19-5v5Zm0,0s-12.892.495-17.69,6.277c0,0-4.749,3.937-6.223,2.383-0.591-.623-1.737-1.841-0.657-3.408,1.615-2.343,5.9-5.126,5.9-5.126A37.218,37.218,0,0,1,63,34v5Z"/>
    <path id="Shape_11_copy_5" data-name="Shape 11 copy 5" class="cls-1" d="M63,30s-18.2,2.218-23,8c0,0-4.407,4.468-7,3-0.747-.423-1.081-2.433,0-4,1.615-2.343,9-7,9-7s10.172-5,21-5v5Zm0,0s18.387,2.079,23.234,7.751c0,0,4.452,4.383,7.071,2.943,0.755-.415,1.092-2.386,0-3.923-1.632-2.3-9.092-6.866-9.092-6.866S73.938,25,63,25v5Z"/>
    <g id="SOS">
      <path id="Rectangle_1_copy_3" data-name="Rectangle 1 copy 3" class="cls-2" d="M39,70c-0.218-3.25-.187-3.88-1-5s-2,0-2,0c-3.109,4.525,4,8,4,8a19.744,19.744,0,0,1,4.959,4h0.026c4.954,4.836,3.922,10,3.922,10s1.679,11-10.922,11S26,88,26,88V83h9a14.99,14.99,0,0,0,1.992,7c0.807,1.12,1.986,0,1.986,0,3.087-4.525-3.972-8-3.972-8a19.621,19.621,0,0,1-4.924-4H29.95C24.96,73.164,26,68,26,68S24.309,57,37,57,48,70,48,70H39Z"/>
      <path id="Shape_12_copy_3" data-name="Shape 12 copy 3" class="cls-2" d="M63,98s-12,.614-12-17V75c0-19.692,12-18,12-18s12-2.048,12,18v6C75,98.555,63,98,63,98Zm2-21V68s-0.018-4-2-4-2,4-2,4V87s0.018,4,2,4,2-4,2-4V77Z"/>
      <path id="Rectangle_1_copy_4" data-name="Rectangle 1 copy 4" class="cls-2" d="M90,70c-0.218-3.25-.187-3.88-1-5s-2,0-2,0c-3.109,4.525,4,8,4,8a19.744,19.744,0,0,1,4.959,4h0.026c4.954,4.836,3.922,10,3.922,10s1.679,11-10.922,11S77,88,77,88V83h9a14.99,14.99,0,0,0,1.992,7c0.807,1.12,1.986,0,1.986,0,3.087-4.525-3.972-8-3.972-8a19.621,19.621,0,0,1-4.924-4H80.95C75.96,73.164,77,68,77,68S75.309,57,88,57,99,70,99,70H90Z"/>
    </g>
  </g>
</svg>
