<svg xmlns="http://www.w3.org/2000/svg" fill-rule="evenodd" viewBox="0 0 126 126">
    <path fill="#c9b269" d="M4 122v-20l20 20H4Zm118 0v-20l-20 20h20Zm0-118v20L102 4h20ZM4 4v20L24 4H4Z"/>
    <path fill="#fff" d="M63 48s-9.206.521-14 6c0 0-2.527 1.473-4 0s0-4 0-4a27.841 27.841 0 0 1 18-7v5zm0 0s9.376.684 14.258 6.324c0 0 2.574 1.516 4.074 0s0-4.118 0-4.118A28.213 28.213 0 0 0 63 43v5zm0-9s13.118.36 18 6c0 0 4.832 3.841 6.332 2.324.6-.608 1.768-1.8.668-3.324-1.644-2.286-6-5-6-5a39.028 39.028 0 0 0-19-5v5zm0 0s-12.892.495-17.69 6.277c0 0-4.749 3.937-6.223 2.383-.591-.623-1.737-1.841-.657-3.408 1.615-2.343 5.9-5.126 5.9-5.126A37.218 37.218 0 0 1 63 34v5zm0-9s-18.2 2.218-23 8c0 0-4.407 4.468-7 3-.747-.423-1.081-2.433 0-4 1.615-2.343 9-7 9-7s10.172-5 21-5v5zm0 0s18.387 2.079 23.234 7.751c0 0 4.452 4.383 7.071 2.943.755-.415 1.092-2.386 0-3.923-1.632-2.3-9.092-6.866-9.092-6.866S73.938 25 63 25v5zM45 71s-.338 1-3 1a7.075 7.075 0 0 1-4-1 11.323 11.323 0 0 0 0-4 1.6 1.6 0 0 0-1-1h-6c-2.025 0-.465 4.5 1 6 1.88 1.912 4.453 1.528 10 6a8.853 8.853 0 0 1 3 8s1.181 9-12 9-10-12-10-12 .339-1 3-1a7.031 7.031 0 0 1 4 1 11.308 11.308 0 0 0 0 4 1.605 1.605 0 0 0 1 1h5a1.936 1.936 0 0 0 2-2s1.477-3.839-4-6c-6.467-2.552-8.921-5.5-10-7a.564.564 0 0 1-.106-.389A22.684 22.684 0 0 1 23.031 68c.039-1.465-1.179-9 11.984-9S45 71 45 71zm56 0s-.338 1-3 1a7.075 7.075 0 0 1-4-1 11.323 11.323 0 0 0 0-4 1.6 1.6 0 0 0-1-1h-6c-2.025 0-.465 4.5 1 6 1.88 1.912 4.453 1.528 10 6a8.853 8.853 0 0 1 3 8s1.181 9-12 9-10-12-10-12 .339-1 3-1a7.031 7.031 0 0 1 4 1 11.308 11.308 0 0 0 0 4 1.605 1.605 0 0 0 1 1h5a1.936 1.936 0 0 0 2-2s1.477-3.839-4-6c-6.467-2.552-8.921-5.5-10-7a.564.564 0 0 1-.106-.389A22.684 22.684 0 0 1 79.031 68c.039-1.465-1.179-9 11.984-9S101 71 101 71zM70 94H55c-3.154 0-4-5-4-5l.143-12L51 65s.846-5 4-5h15c3.255 0 4 5 4 5v24s-.745 5-4 5zm-7.5-5c-1.374.026-4.5.723-4.5-2V75.908l-.044-8.9c-.017-2.72 3.17-2.034 4.544-2.008 1.374-.026 4.5-.723 4.5 2v20c0 2.724-3.126 2.026-4.5 2z"/>
</svg>
