<svg xmlns="http://www.w3.org/2000/svg" xmlns:xlink="http://www.w3.org/1999/xlink" viewBox="0 0 126 126">
  <defs>
    <style>
      .cls-1 {
        fill: #c9b269;
      }

      .cls-1, .cls-2 {
        fill-rule: evenodd;
      }

      .cls-2 {
        fill: #fff;
      }
    </style>
  </defs>
  <path class="cls-1" d="M4,122V102l20,20H4Zm118,0V102l-20,20h20ZM122,4V24L102,4h20ZM4,4V24L24,4H4Z"/>
  <path class="cls-2" d="M26,102L53,68,63,79l9-1,22,24H26Z"/>
  <path class="cls-2" d="M42,76l8-9s-6.476-27.337-6-39H36S35.2,61.648,42,76Z"/>
  <path class="cls-2" d="M47,28s2.761-.479,4-2,10.268-5.183,15,0,13-2,13-2l6-3s3.422-.873,2,7,1,13,1,13,3.666,7.133,1,8c-3.09,1-3.772,2.506-5,3a21.8,21.8,0,0,1-11,1s-4.176-1.945-6-3c-2.554-1.477-8.634.634-10,2s-4.69,4.916-6,2S48.648,46.254,47,28Z"/>
</svg>
