<svg xmlns="http://www.w3.org/2000/svg" viewBox="0 0 126 126">
<path fill="#de7b6c" d="m9 47 29-8 9-29 7 7v38H16Z"/>
<path fill="#de7b6c" d="M98 112 82 95H72a10 10 0 0 0-19-4.3 10 10 0 0 0-18 0 10 10 0 0 0-18.3.6L9 79l50-19 19-50 12.5 7.3A10 10 0 0 0 88.7 36a10 10 0 0 0 0 18A10 10 0 0 0 95 72.8V83l17 17 1 14Z"/>
<g fill="#fff">
<circle cx="26" cy="95" r="8"/>
<circle cx="44" cy="95" r="8"/>
<circle cx="62" cy="95" r="8"/>
<circle cx="93" cy="63" r="8"/>
<circle cx="93" cy="45" r="8"/>
<circle cx="93" cy="27" r="8"/>
</g>
</svg>