<svg xmlns="http://www.w3.org/2000/svg" xmlns:xlink="http://www.w3.org/1999/xlink" viewBox="0 0 126 126">
  <defs>
    <style>
      .cls-1 {
        fill: #de7b6c;
      }

      .cls-1, .cls-2 {
        fill-rule: evenodd;
      }

      .cls-2 {
        fill: #fff;
      }
    </style>
  </defs>
  <path id="queue_copy_2" data-name="queue copy 2" class="cls-1" d="M9,47l29-8,9-29,7,7V55H16Z"/>
  <path class="cls-1" d="M98,112L82,95H63.269L64,76,51,68H37.947L59,60l7.435-19.565L69,43V54l9,9H95V83l17,17,1,14ZM91,28H71.16L78,10,95,20V30.286ZM9,79l12.162-4.622L29,83V95H19Z"/>
  <path class="cls-1" d="M120,77"/>
  <path class="cls-2" d="M24,72H42l3,4V72l5,1,9,4V95l-5-4V85H48l-2-2H43V94h8l4,6H40l-7-7V81Z"/>
  <path class="cls-2" d="M65,31l17,1,3,4,1-4h4l9,5V55l-5-5V45H88l-1-2H83V54h8l5,5H80l-6-6L73,41Z"/>
</svg>
