<svg xmlns="http://www.w3.org/2000/svg" xmlns:xlink="http://www.w3.org/1999/xlink" viewBox="0 0 126 126">
  <defs>
    <style>
      .cls-1 {
        fill: #c9b269;
      }

      .cls-1, .cls-2 {
        fill-rule: evenodd;
      }

      .cls-2 {
        fill: #fff;
      }
    </style>
  </defs>
  <path id="queue_copy_2" data-name="queue copy 2" class="cls-1" d="M9,47l29-8,9-29,7,7V55H16Z"/>
  <path class="cls-1" d="M89.256,49.117a30.982,30.982,0,0,0-26.935,2.144L78,10,95,20V40.5ZM19,95L9,79,50.8,63.114A31,31,0,0,0,52.081,95H19Zm86.082-1.918L112,100l1,14-15-2-5.98-6.354A31.122,31.122,0,0,0,105.082,93.083Z"/>
  <path class="cls-2" d="M99,77h6s-0.517,28.043-27,28c-25.966-.042-27-27-27-27S50.078,51.19,78,51c0,0,7.629-.571,13,3l5-7,9,20H84l4-7s-15.219-8.98-26,5-1.088,27.634,6,31S94.493,104.454,99,77Z"/>
  <path class="cls-1" d="M76,70l17.319,0.666a17.074,17.074,0,1,1-10.8-9.041Z"/>
</svg>
