<svg xmlns="http://www.w3.org/2000/svg" xmlns:xlink="http://www.w3.org/1999/xlink" viewBox="0 0 126 126">
  <defs>
    <style>
      .cls-1 {
        fill: #49adc9;
      }

      .cls-1, .cls-2 {
        fill-rule: evenodd;
      }

      .cls-2, .cls-3 {
        fill: #fff;
      }
    </style>
  </defs>
  <path class="cls-1" d="M31,83V59L18,83H31Z"/>
  <path class="cls-2" d="M35,87l2,25h5V87H35Z"/>
  <path class="cls-2" d="M45,87v25h5l2-25H45Z"/>
  <path class="cls-2" d="M76,87l2,25h5V87H76Z"/>
  <path class="cls-2" d="M86,87v25h5l2-25H86Z"/>
  <path class="cls-2" d="M35,83V33H52V83H35Z"/>
  <rect class="cls-3" x="76" y="33" width="17" height="50"/>
  <path class="cls-1" d="M97,83h13L97,59V83Z"/>
  <path class="cls-1" d="M56,83V29H35V16H93V29H72V83H56Z"/>
</svg>
