<svg xmlns="http://www.w3.org/2000/svg" viewBox="0 0 126 126">
  <path fill="#49adc9" fill-rule="evenodd" d="M118.8 83.625v.465l-.93.93v1.86h-1.395a1.9 1.9 0 0 0-.93 1.86 1.2 1.2 0 0 1-.93-.93 1.8 1.8 0 0 0-1.4.465h-.93a1.524 1.524 0 0 0-1.395.93 3 3 0 0 1-.93-1.395 1.258 1.258 0 0 0-.93.93.464.464 0 0 1-.465-.465 1.729 1.729 0 0 0-1.849.455c.04-.04.143-.2-.476-.455a1.8 1.8 0 0 0-.93.93 1.511 1.511 0 0 1-.93-1.395h-.465s-.884.758-.465 1.395a1.654 1.654 0 0 1-1.395-1.395l-.465.465-.465.465-.93-.93a.775.775 0 0 0-.93.93s-1.106-.386-.93-.93h-.461a1.963 1.963 0 0 0 0 1.395 1.228 1.228 0 0 1-.93-.93v-.079l-.008-.083v-.039l-.007-.066v-.046.046l.007.066v.039l.001.087v.079h-.93l-.465.465h-.93v-.469h-.922v.93a2.057 2.057 0 0 1-1.395-.93H90.9l-.93-.465-.465.93-.93-.465h-.93v.93l-.93-.93h-.465l-.93.465h-.465v-.465h-.465l-.93.465-.465-.465h-.93v.465H80.67l-.47-.465-3.255.93-.465-.93h-2.32l-.465.93h-.93v-.93h-.93v.93H70.9l-.93-.93h-1.4l-.93.93h-.92v-.93h-.93v.93l-1.4-.93h-1.86l-.465.93h-.925l-.465-.93h-.465v.93s-1.633-.312-1.86-.93l-.93.93-.465-.93h-.93l-.465.93h-.93V87.81h-.465v.93h-.93l-.465-.465-.93.93h-.93V87.81h-.93v.93h-.465l-.93-.465h-1.86v.93h-1.86l-.93-.93h-1.86s-.889.374 0 .93 1.863 1.418.465 1.4c-2.736-.045-2.325-1.4-2.325-1.4h-1.4v.465h-.925v.465A3.642 3.642 0 0 1 36.5 92c-.834.313-8.835 2.79-8.835 2.79h-.93l-.93-.93s-.08-.443-.93 0-8.835 2.325-8.835 2.325-6.893.972-7.44-2.79-.93-6.045-.93-6.045l-.47-.47v-1.86s5.555-2.775 8.835-3.255l.93-.93 2.79-.93v-.93l.93-.465v-.93l2.325-.465-1.86-1.86v-.93l3.72-3.255h.93l1.4.93h2.79v-1.4h3.255l.461 1.4s3.508.2 4.185.93 2.79 3.255 2.79 3.255h2.79v-1.86h4.185v.465h.93l4.65-3.255.465-.465H63v.465h7.9s2.6 1.233 2.79 3.255a3.092 3.092 0 0 1 1.86 2.79h-.93v.93l.031.465h.439v.465h.465v-.464h.465l.465.93h.465s.56-1.624 1.395-1.86c0 0 .031 1.624.465 1.86h.465l.465-.93h.93v.93h.465a3.124 3.124 0 0 1 1.4-1.86 4.137 4.137 0 0 0 .465 1.86h.46s.287-1.569.93-1.86l.465 1.395h.465v-.465h.465v-.465l.93.465v.93h.465s.3-1.64.93-1.86c0 0 .583 1.758.93 1.86l.09.026.053.016-.053-.016-.09-.026a10.412 10.412 0 0 0 .465-1.86c.044-.631.93 1.395.93 1.395h.93v-.465h.93v.465h.465a2.643 2.643 0 0 1 1.395-1.395s-.3 1.242 0 1.395h1.4v-.465h.93v.465h.93v-1.395a7.441 7.441 0 0 1 1.86 1.86s.305-1.759.93-1.86a3.274 3.274 0 0 0 .465 1.395h.465v-.465h.93l1.395-.93 1.4 1.86h.465a5.214 5.214 0 0 0 .93-1.4l.465.93h.465v-.46l.93.465v.465s1.453-.285 1.395-1.4c0 0 .657.123.93 1.4a4.014 4.014 0 0 0 .93-1.86 2.4 2.4 0 0 1 .93 1.86h.465v-.465l.465-.465.93-.465v.93h.93l.465-.465h.93v1.4h.465v.465a1.616 1.616 0 0 0 1.4 0v.93l-.465.465v.93Zm-12.079 5.1-.011.01ZM84.579 77.96Zm-.074.034.074-.034Zm-.115.052.115-.052ZM28.126 89.205l-14.88 4.185s-2 .79-1.86-4.65a2.48 2.48 0 0 1 1.814-2.31l.045-.014c1.9-.6 1.86-.465 1.86-.465s-1.851 2.317 0 2.325 6.51-1.86 6.51-1.86a1.114 1.114 0 0 1 1.395.93c.142.63 1.86.465 1.86.465s2.113-.32 1.86-1.86c0 0 3.948.6 1.395 3.255m-1.395-16.74h-.464l-.93.93v.465h.464l.93-.93v-.465Zm39.99 5.115h-6.045v-.465h-1.86v.465H54.63l-.93-1.86v-1.395l.93-.93h4.65v.465h1.86V73.4h4.65l1.395 1.395v2.325Zm-42.314-2.79h-.465l-.93.93v.465h.465l.93-.93v-.465Z" />
  <path d="m52.305 43.636 26.04-26.969a26.908 26.908 0 0 1-7.9 17.67c-7.914 7.752-13.95 13.485-13.95 13.485ZM45.33 50.146l-3.255-3.255v-.93l3.72-3.72h.93L57.42 53.4v.93l-3.72 3.72h-.93l-3.255-3.25-6.975 6.971-4.185-4.65Z" style="fill-rule:evenodd;fill:#fff" />
  <path d="m80.67 50.146 3.255-3.255v-.93l-3.72-3.72h-.93L68.58 53.4v.93l3.72 3.72h.93l3.255-3.25 6.975 6.975 4.185-4.65Z" style="fill-rule:evenodd;fill:#fff" />
  <path d="M69.51 47.821s-1.623-1.542-4.276-4.094l4.349-4.349 4.112 4.258Zm-10.891-10.5 4.569-4.569 4.037 4.181-4.564 4.31a1265.8 1265.8 0 0 1-4.042-3.92Zm-2.548-2.487-.511-.5a26.908 26.908 0 0 1-7.9-17.67l13.189 13.66Z" style="fill-rule:evenodd;fill:#fff" />
</svg>
