<svg xmlns="http://www.w3.org/2000/svg" viewBox="0 0 126 126">
  <path d="M83.053 30.442h-7.166L74.1 32.233H43.64V22.38H74.1l1.791 1.791h7.166l5.822 3.135ZM36.026 22.38h4.031v9.853h-4.031V22.38Z" style="fill:#fff;fill-rule:evenodd"/>
  <path d="M83.053 43.43h-7.166L74.1 45.221H43.64v-9.853H74.1l1.791 1.791h7.166l5.822 3.135Zm-47.027-8.062h4.031v9.853h-4.031v-9.853Z" style="fill:#fff;fill-rule:evenodd"/>
  <path d="M83.053 56.418h-7.166L74.1 58.21H43.64v-9.854H74.1l1.791 1.791h7.166l5.822 3.135Zm-47.027-8.062h4.031v9.854h-4.031v-9.854Z" style="fill:#fff;fill-rule:evenodd"/>
  <path fill="#49adc9" fill-rule="evenodd" d="M119.778 83.738v2.239h-.448l-.448.9-.9 1.344-.448.9h-4.927l-.448-.9h-.448v.9h-3.583l-.447-.9h-5.823l-.448.9h-2.234l-1.344-1.344H75.887v.448h-4.479l-.448.9-.9.9V91.8l-.9.9h-2.679l-.448 1.791h-2.687v.448h-2.239v-.452h-9.853v.448h-1.792v-.448h-6.718v.448h-1.791v-.448l-.453-.448h-.9v-4.478h-4.022l-1.792-.9v-.444h-4.03l-1.791-.448H10.049v.448H8.706l-1.344-1.343V85.53l-.448-1.344-.448-.9V80.6l26.872-7.166h11.2v-.445h1.791l.448.448h17.465l2.239 1.792h.9l1.791-1.792s-.372-3.106 2.684-3.137c0 0 3.6 1.07.9 4.479L72.3 77.02h3.135v.448h23.293l.448-.9h.9v.452h.895v-.448h.9v.9l.448.448h5.822l.448-.9.448-.448h.448l.448.448h.448l.448-.448h.448l.447.9h.448l.448-.9h1.78v.9h1.343v-.9h1.792l.448.9.447.9.448 1.344h.9v2.239h-.448v1.791h.448Zm-95.4 2.239h5.374v.448h.9v-2.687h-2.24l-4.927 1.344Zm-.9-5.374-2.239.448-1.344.9h-1.336s-2.131.485-2.239.448-3.583.9-3.583.9l-2.687.448a1.344 1.344 0 0 0 .45 1.783h6.27l8.062-2.239s2.767-.8 3.135-.9 3.135-.9 3.135-.9v-.44l-4.034-.451h-3.583Zm9.853-4.479L31.1 78.812l5.374-3.135Zm6.27-.448h-.9v.448h.9v-.447ZM72.3 82.395v.9h4.031l.448.448h21.05V81.5H76.782l-.448.448h-3.582v.448H72.3Zm25.98-3.135H73.2v.448h25.08v-.448Zm0 6.27H73.2v.448h25.08v-.448Zm8.958-4.031h-4.031v.448h-.448v1.791h4.479V81.5Zm7.614 1.791h-.452v-.9h.448v-.443l-.9-.448h-.9v.448h-.448v.448h.448v.9h-.448v.448h2.24v-.452Z"/>
</svg>
