<svg xmlns="http://www.w3.org/2000/svg" viewBox="0 0 126 126">
  <defs>
    <style>
      .cls-2,.cls-3{fill:#49adc9;fill-rule:evenodd}.cls-3{fill:#fff}
    </style>
  </defs>
  <path fill="#49adc9" d="M79 41h9v10h-9z"/>
  <path d="M104 98H63.833L63 88l-7 6V84s9-1.509 9-9-9-8-9-8 6-4.107 6-10-7-10-7-10l-1-2V32l9 9h12v14h17V41h12l9-9v57Z" class="cls-2"/>
  <path d="m54 27 11 10h37l11-10V16H54v11Z" class="cls-2"/>
  <path d="m40 81 1 17 11-11v16l8-8v8h9l-9 9H16l-9-9h9v-8l8 8V87l11 11 1-17s-21 .144-21-6c0-4.106 20-5 20-5-.952-5.07-3-6-3-6h-8s-5-.614-5-7 6-6 6-6c.444-6.31 7-5 7-5a3.241 3.241 0 0 1 3-3c.3-1.416 3-1 3-1s2.7-.416 3 1a3.241 3.241 0 0 1 3 3s6.556-1.31 7 5c0 0 6-.386 6 6s-5 7-5 7h-8s-2.048.93-3 6c0 0 20 .894 20 5 0 6.144-21 6-21 6Zm-4-7c-.071-.506-13-.479-13 2 0 1.488 12.881 1.746 13 1a8.889 8.889 0 0 0 0-3Zm4 0a8.889 8.889 0 0 0 0 3c.119.746 13 .488 13-1 0-2.479-12.929-2.506-13-2Z" class="cls-3"/>
</svg>
