<svg xmlns="http://www.w3.org/2000/svg" viewBox="0 0 126 126">
  <defs>
    <style>
      .cls-2{fill-rule:evenodd;fill:#fff}
    </style>
  </defs>
  <path fill="#49adc9" fill-rule="evenodd" d="M114.466 80.449h-1.023l-.511-.511h-3.066l-2.556 2.556H87.376a14.391 14.391 0 0 0 1.533 5.111s1.944 3.135-1.022 5.111h-3.066a2.047 2.047 0 0 1-1.021-2.555l-1.022-5.622h-2.046v7.156a2.248 2.248 0 0 1 .511 2.044c-.634 1.586-3.067 1.022-3.067 1.022v-.511h-5.622l-.511 1.533H61.82v.511h-1.533l-1.533-1.533v-1.534l-.511-.511-.511.511h-8.178l-5.111 8.689v2.556H42.4l-6.133-3.578v-1.022l1.022-.511 6.645-11.245-2.044-2.044v-1.534h-.514v-2.555h.511l.511-.511v-2.045l-1.022-.511-1.022.511v4.6l-.511 1.533-1.533 1.533h-1.023l-.511-1.022h-.512l-11.755 8.69h-7.667s-.294 1.533-3.067 1.533a2.4 2.4 0 0 1-2.044-1.022l-.511-.511-.511-1.533h.511v-.512l-.511-1.533h.511v-1.022l-.511-.511v-1.023h.511v-.511l-.511-.511v-1.022h.511l-.511-1.022v-1.023h.511l-.511-1.022v-1.022l.511-.511-.511-1.022.511-1.022-.511-1.022v-1.023h.511l-.511-1.022v-1.023s.366-1.533 3.067-1.533 3.067 1.022 3.067 1.022h23l.511 1.022h1.533l2.044-1.533h2.556l4.089-1.027H56.2v-1.528l-2.044-1.022v-.512l1.533-.511-.511-.511.511-.511v-.511h12.265l1.022-1.022v-1.534H70l.511 1.022h1.022v-1.022h.511v1.022h1.022v-1.022h.511v1.022H74.6v-1.022h.51v1.022h1.022v-1.022h.511v1.022h1.022v-1.022h.511v1.022H79.2v-1.022h.51v1.022h1.022v-1.022h.511v1.022h1.022v-1.022h.511v1.022H83.8v-1.022h.51v1.022h1.022v-1.022h.511v1.022h1.022v-1.022h.511v1.022H88.4v-1.022h.51v1.022h1.022v-1.022h.511v1.022h.511v-1.022h1.533v2.044h4.6l1.022-1.533 3.578 3.067v3.067h6.133l1.022 1.022h4.6v-.511h1.023v.506l1.022 1.022v4.089Zm-97.624 9.2v3.578h4.089l-3.067-3.577h-1.022Zm15.845-4.6H18.375v1.533l6.134 5.111h.511l7.667-5.622V85.05Zm18.4 2.556-1.022 1.022v3.067l.511.511h3.578a5.463 5.463 0 0 1-1.533-4.6h-1.534Zm3.578 0 .124-.084.036-.024-.036.024-.124.084c-1.561 1.047 0 4.6 0 4.6s3.067.326 3.067-2.044a2.326 2.326 0 0 0-3.067-2.556Zm7.156 3.578s-1.022.254-1.022-1.022h-.512v1.533a10.87 10.87 0 0 0 2.556.511h13.289L74.6 91.183H61.82ZM83.8 69.716H71.532v1.022H83.8v-1.022Zm11.756 0H88.4v.511l.511.511h6.645v-1.022Z"/>
  <path d="M50.882 27.021H39.1v-1.964h-8.835v25.525H39.1v-1.963h11.782v-21.6Z" class="cls-2"/>
  <path d="M87.634 48.619H75.425v-21.6h11.781s8.836.346 8.836 10.8-8.408 10.8-8.408 10.8Z" class="cls-2"/>
  <path d="m66.589 24.075-12.762 16.69h7.854L59.717 49.6 72.48 33.893h-7.854Z" class="cls-2"/>
</svg>
