<svg xmlns="http://www.w3.org/2000/svg" viewBox="0 0 126 126"><g fill="#fff"><path d="M75.079 18.15s14.346-.809 14.346 14.841-15.336 14.346-15.336 14.346a50.666 50.666 0 0 1-21.272-4.947l4.452-2.473s-8.484-2.417-15.335-3.958A6.809 6.809 0 0 1 45.4 33.98 137.52 137.52 0 0 0 30.062 32s12.066-3.594 20.282-3.463a11.564 11.564 0 0 0-3.463-2.968S52 23.787 57.764 22.107 68.3 18.15 75.079 18.15zm-.129 3.7a11.012 11.012 0 1 1-11.012 11.012A11.012 11.012 0 0 1 74.95 21.85z" fill-rule="evenodd"/><circle cx="71.094" cy="33.953" r="1.656"/><circle cx="78.531" cy="28.531" r="2.469"/><path d="M77.3 35.464a1.731 1.731 0 1 1-1.727 1.736 1.731 1.731 0 0 1 1.727-1.736Z" fill-rule="evenodd"/></g><path d="M14.726 83.449V78.5a.932.932 0 0 0 0-.989v-2.472a2.43 2.43 0 0 1 2.474-2.473c2.465 0 2.968 1.484 2.968 1.484h4.452s0-1.484.495-1.484h6.431s.989-.014.989 1.484H36s-.045-1.484.495-1.484h5.936a1.279 1.279 0 0 1 .989 1.484h3.463s-.044-1.484.495-1.484h6.431s.495.117.495 1.484h3.958s-.151-1.484.495-1.484h5.933s.495.141.495 1.484h1.979l-1.979-2.473s-1.632-3.518.495-4.452c1.473-.647 3.463 2.968 3.463 2.968l2.967 3.957h1.979l-2.968-2.968S71 69.6 71.616 69.6c0 0-.234-2.474 1.484-2.474s5.442 6.926 5.442 6.926h1.484l-2.474-2.968s-.343-1.984 1.484-1.984c0 0-.339-2.761 1.484-1.979 1.152.495 4.947 6.926 4.947 6.926s1.234-.152.495-.989S83.53 70.5 83.983 69.6s1.979-.495 1.979-.495-.473-2.628 1.484-1.979a3.249 3.249 0 0 1 1.979 2.968 1.118 1.118 0 0 0 .989-.495c.18-.5 1.373-.894 2.473.495 0 0 .945.093 0-.989s1.779-3.368 2.968-.989l2.968 5.936h4.452a4.28 4.28 0 0 1 1.484 2.968s4.376.666 5.442 1.484v1.979a15.308 15.308 0 0 1-5.937 1.979 11.469 11.469 0 0 1-.494 4.452c-.527 1.128-2.969.989-2.969.989a1.57 1.57 0 0 1-1.484 1.484 2.864 2.864 0 0 1-1.979-.495V88.4h-.493v.495h-2.474V88.4h-.494v.495h-.495V88.4h-.495v.495a1.365 1.365 0 0 1-1.487 1.48 3.016 3.016 0 0 1-1.979.495s.623 6.048-.989 8.9a1.335 1.335 0 0 0 .495 1.484 2.246 2.246 0 0 1-2.968 1.484c-2.428-.626-2.776-1.932-1.484-2.474 0 0-.991-5.032.989-8.409a2.442 2.442 0 0 0 0-2.474s-2.294-.553-2.474-.989-.554-.8-1.484 0-2.565 2.33-7.915 15.335a1.032 1.032 0 0 0-.495.99c-.01.777.576 2.727-2.473 1.978s-9.894-2.968-9.894-2.968-1.951-.895-.495-3.463 3.466-5.437 3.466-5.437a1.525 1.525 0 0 0-1.484-1.979c-1.928-.068-9.4 0-9.4 0l-2.967-2.968s-1.132-1.6-3.463 0c-1.637 1.124-.867 1.511-4.452 1.484 0 0-1.889.543-1.979 1.979s0 7.915 0 7.915a2.261 2.261 0 0 0-.989 1.484c-.025.841.007 1.461-.989 1.484s-1.851-.013-1.979-2.474-.983-6.712-6.431-10.388c0 0-.058-.519-3.463-.495 0 0-.979-.032-.989-1.484 0 0-4.13.536-5.936-.495s-4.679-3.85-4.453-5.441zm60.353 11.378-3.958 8.9a1.87 1.87 0 0 1-1.681.351 11.214 11.214 0 0 1-3.69-1.283c-.329-.277-.961-2.217 2.9-6.488 0 0 1.921.122 2.473-.495a4.9 4.9 0 0 0 .495-2.473s.029-1.881 3.958-.495a2.983 2.983 0 0 1-.497 1.983z" fill-rule="evenodd" fill="#49adc9"/></svg>