<svg xmlns="http://www.w3.org/2000/svg" viewBox="0 0 126 126">
  <defs>
    <style>
      .cls-2,.cls-3{fill-rule:evenodd}.cls-2{fill:#49adc9}.cls-3{fill:#fff}
    </style>
  </defs>
  <path d="M69 105H57l-6-15h24Z" class="cls-2"/>
  <path d="M38 86a131.643 131.643 0 0 1-7-28h-2l-6 6s1.5 11.908 6 22h9Z" class="cls-2"/>
  <path d="M35.042 48.031A30.221 30.221 0 0 0 61 67.165V86H42a207.41 207.41 0 0 1-10-37l3-1Z" class="cls-2"/>
  <path d="M88 86a131.643 131.643 0 0 0 7-28h2l6 6s-1.5 11.908-6 22h-9Z" class="cls-2"/>
  <path d="M90.958 48.031A30.221 30.221 0 0 1 65 67.165V86h19a207.41 207.41 0 0 0 10-37l-3-1Z" class="cls-2"/>
  <path d="M63 10a26.254 26.254 0 0 1 26 26.5 26 26 0 1 1-52 0A26.254 26.254 0 0 1 63 10Zm0 4.505A21.79 21.79 0 0 1 84.58 36.5a21.584 21.584 0 1 1-43.16 0A21.79 21.79 0 0 1 63 14.505Z" class="cls-3"/>
  <path d="M63 19.01A17.493 17.493 0 1 1 45.84 36.5 17.327 17.327 0 0 1 63 19.01Zm0 4.39a13.1 13.1 0 1 1-12.849 13.1A12.975 12.975 0 0 1 63 23.4Z" class="cls-3"/>
  <path d="M62.975 50.446s-1.093-13.9-13.156-13.9c12.062 0 13.222-13.9 13.222-13.9s1.093 13.9 13.155 13.9c-12.061-.002-13.221 13.9-13.221 13.9Z" class="cls-3"/>
</svg>
