<svg xmlns="http://www.w3.org/2000/svg" viewBox="0 0 126 126">
  <defs>
    <style>
      .cls-1{fill:#fff;fill-rule:evenodd}
    </style>
  </defs>
  <g>
    <path d="M97.285 45.981h-2.676L76.414 41.7h-3.746v1.07l-2.676 3.211h-9.1l2.676-5.887H61.43l-3.211 5.887h-4.281l2.676-7.492v-1.07l-2.676-7.492h4.281l3.211 5.887h2.14l-2.676-5.887h9.1l2.676 3.211v1.07h3.746l18.2-4.281h2.676l19.8 4.281V41.7Z" class="cls-1"/>
  </g>
  <path d="M26.86 54v-7.2l-2.4-3.2 4.8-8 .8 1.6.8 2.4 4 4-3.2 4V54l12-11.2s-.027-4.882-4-14.4a41.89 41.89 0 0 0-4 5.6v-9.6L25.259 14l-1.6 12.8-7.2 7.2v11.2Z" class="cls-1"/>
  <path fill="#49adc9" fill-rule="evenodd" d="M117.43 82.485s.731 8.106-3.04 8.106h-2.026v-.507h-.507v-.507h-10.132v-.506h-.506v.507h-2.026v3.04h.507a102.061 102.061 0 0 1 .507 13.171l-.507 1.52h-3.04s-.928-1.862-1.013-9.119v-5.573l-1.013-.507v-2.026l-.507-.507h-2.533v1.013H90.58l-.507.507h-2.026v1.013l-1.013-.51h-3.039a3.469 3.469 0 0 0 0 3.04s-1.86-.137-1.013-3.546l-1.014 1.016v3.04l1.013 1.52h-1.013l-.507-.507h-1.52l-5.573 9.119h-1.012l-3.04-2.027v-1.013l5.573-9.119V91.6l-1.52-.507h-2.026l-.507-.507-2.536-.502-.5-.507h-8.109l-.506 1.013h-2.533l-2.026-.507h-4.56l-1.52.507H38.4l-1.52-.507h-4.558l-2.022.507h-2.031l-1.013-1.013h-1.014l-.507.507H23.2l-.5-.507h-3.04l-.507.507h-2.029l-.507-.507H15.6l-.507.507s-5.066 1.8-5.066-2.533v-9.119s.086-3.04 2.533-3.04l1.52.507h2.533l.507-.507h2.03l.507.508h12.665l.507-.507h3.546l1.013.507h14.184l.507-.507h3.04v.507h22.8l1.013-.507h2.533l.507-1.013h.507l.507 1.52h11.141l1.013-.507h1.013v.507h1.013v-.508h1.013l.507.508h13.171s-.3-1.013 2.027-1.013 3.546.352 3.546 7.598Z"/>
</svg>
