<svg xmlns="http://www.w3.org/2000/svg" viewBox="0 0 126 126">
  <defs>
    <style>
      .cls-2{fill-rule:evenodd;fill:#fff}
    </style>
  </defs>
  <path fill="#49adc9" fill-rule="evenodd" d="M88.859 83.82H75.024L74 84.845l-2.05.512h-1.025l-1.537 1.537-3.074.512h-2.563l-8.711.512H53.5l-.512-1.025-.512.512h-2.559l-.517-.511h-5.632l-.512.512h-.513s-.852-.235-1.025-2.562a1.822 1.822 0 0 1-2.05 1.537h-2.561v-.511h-.513v-1.538h-2.562l-.512.512-1.537.512h-.513l-1.537.512-.512.512.512.512v.512l-.512.512.512.512v1.025l-.512.513h-2.05l-.512-.513h-.513v.513H24.3l-.512-.513h-.516l-.512.513h-2.05v-.51h-.51l-.512.513h-2.05l-.512-.513v-1.024h.512v-.513H16.1v-.512h-1.027v.512l-1.025 1.537-.512.513-1.025-.513v-1.537H12v1.025l-.512.512h-1.026a1.277 1.277 0 0 1-.512-2.049l.512-2.05h.512v-1.025h-.512v-.512h.512V82.8h-.512v-.517h.512v-1.025h-.512l-.513-1.025h.512l-.512-1.025s-1.069-2.1 1.537-2.05v.512H12l.511 1.03v-1.541l1.025-.512 1.537 2.05v.512H16.1l.512-1.025h9.736l4.612 2.562v1.537l1.025-.512h1.025l1.537-.512h.512l4.61-2.559 1.025-2.562h6.661v-.516h1.537v.512h3.074l.512.512H53.5l.512-.512h.512l1.537-1.025V74.6h.512v.512h4.611V74.6h.516v.512h3.587V74.6h1.025l.512 1.537h4.612l1.025-.512h2.05l1.025 1.537h1.537l1.538-2.562h1.025l.512 2.562h1.025v-.516L82.71 74.6h1.025v2.562h1.537l1.537-2.562 1.025.512v2.05h1.025l2.05-2.562 1.025.512v2.05h1.025L94.5 74.6h1.02l.512 2.562h1.025v-.516l1.537-2.05h1.025v2.562h1.537v-1.024l1.538-1.537 1.024.512v2.05h1.025v-1.025l.513-.512h.512l.512.512.513 1.025.512.512h2.05v-2.05l1.025-.512 7.173 3.587-7.173 4.1-1.025-.512v-2.563h-2.05l-.512.512v5.124l-1.537.512v-.512l-2.05-.512v1.025h-1.025v-.513l-.512-.512v1.025h-1.025v-.513l-.512-.512v1.025h-.513v-.513l-1.025-.512v1.025h-.512v-.513l-.512-.512v1.025h-1.025l-.512-.512V83.82h-7.174m21.521-6.149.512.512h2.05l-1.025-.512-.513-.512-1.024-.512v1.025Zm0 2.482.512-.512h2.05l-1.025.512-.513.512-1.024.512v-1.024Zm-7.174 1.617v-.512l.512-.512h1.025v1.024h-1.537Zm-3.587-.512v-.512h1.025v.512l.512.512h-2.049Zm-4.1-.512h1.025v1.024H95.52v-1.024Zm-4.1.512.512-.512h1.025v1.024h-1.535v-.512Zm-4.1 0 .512-.512h1.025v1.024h-1.534v-.512Zm-4.1 0 .512-.512h1.029v1.024h-1.537v-.512Zm-3.587-.512h1.537v1.024h-1.533v-1.024Zm-4.1 0h1.537v1.024h-1.532v-1.024Zm-19.467-3.075-1.025-1.025h9.736l-.512 1.025h-8.2Zm-16.909 8.2c-1.225 0-2.05.2-2.05-1.025V83.82h.512a1.4 1.4 0 0 0 1.025 1.537v-2.05h2.562v1.025s-.824 1.538-2.049 1.538Zm-12.81 1.537h.512v1.025h-.512v-1.026Zm0-2.562h.512v1.537h-.512v-1.538Zm-3.074 2.562h.512v1.025h-.512v-1.026Zm0-2.562h.512v1.537h-.512v-1.538ZM20.2 87.407h.51v1.025h-.51v-1.025Zm0-2.562h.51v1.537h-.51v-1.537Zm-6.149 2.562h-1.027l1.025-1.025v-1.537h1.025v1.537l-.512.512Zm0-6.149-.512-.512v-1.025h-.515v-.513a1.265 1.265 0 0 1 1.537 1.025l-.512.512 1.025 1.025v.512h-1.025v-1.024Zm-1.025 0h-.515L12 81.77v-1.537h.512l.512.512v.512Zm0 4.1-.512 1.025v.512H12v-1.538h1.025Z"/>
  <path d="m40.211 50.148 1.454 1.431 3.392-3.34 2.423 2.386-8.239 8.111-2.423-2.386 3.393-3.34-1.454-1.43-2.423 1.908h-4.106l-2.386-1.909-1.432 1.43 3.341 3.341-2.387 2.386-8.114-8.114 2.387-2.387 3.341 3.341 1.432-1.432-8.591-8.114V32.007s1.986.014 3.341 0c-.22-11.014 10.5-11.455 10.5-11.455l.731-.013v.019l.488.009s10.885.441 10.662 11.451c1.376.014 3.392 0 3.392 0v10.02Zm-2.016-.958A1.193 1.193 0 1 0 37 48a1.193 1.193 0 0 0 1.195 1.19Zm0-4.3A1.193 1.193 0 1 0 37 43.7a1.193 1.193 0 0 0 1.195 1.194Zm-3.818 6.682a1.193 1.193 0 1 0-1.193-1.193 1.193 1.193 0 0 0 1.192 1.198Zm0-4.3a1.193 1.193 0 1 0-1.193-1.193 1.193 1.193 0 0 0 1.192 1.202Zm0-4.773a1.193 1.193 0 1 0-1.193-1.193 1.193 1.193 0 0 0 1.192 1.202Zm-3.819 6.691A1.193 1.193 0 1 0 29.365 48a1.193 1.193 0 0 0 1.193 1.19Zm0-4.3a1.193 1.193 0 1 0-1.193-1.19 1.193 1.193 0 0 0 1.193 1.194Zm12.648-12.883h-17.66v6.682l3.819 2.864 4.3-3.341h1.227l4.4 3.341 3.915-2.864v-6.682Z" class="cls-2"/>
  <path d="m95.248 51.217 2.594-5.187 8.819-5.706V39.8l-8.819-5.7-2.594-5.187L113.4 39.8v.519Z" class="cls-2"/>
  <path d="m101.594 40.063-.4.261-17.362 11.411 5.187-9.856H66.195l-3.5-1.556-.581-.258.586-.265 3.5-1.556h22.823l-5.187-9.856L101.2 39.8Z" class="cls-2"/>
</svg>
