<svg xmlns="http://www.w3.org/2000/svg" viewBox="0 0 126 126">
  <path d="M79 41h9v10h-9z" fill="#49adc9"/>
  <path d="M75 41H63l-9-9v23h16v43h34l9-9V32l-9 9H92v14H75V41Z" fill="#49adc9" fill-rule="evenodd"/>
  <path d="m54 27 11 10h37l11-10V16H54v11Z" fill="#49adc9" fill-rule="evenodd"/>
  <path d="M48 59h18v6H48z" fill="#fff"/>
  <path d="M48 107h18v6H48z" fill="#fff"/>
  <path d="M48 73h18v26H48z" fill="#fff"/>
  <path d="M26 59h18v6H26z" fill="#fff"/>
  <path d="M26 107h18v6H26z" fill="#fff"/>
  <path d="M26 73h18v26H26z" fill="#fff"/>
  <path d="M16 55H5l10-5-5-9 10 2 1-11 7 9 8-9v11l12-3-6 10 10 5H41l-5-3 2-5-5 1v-6l-5 5-3-4-1 5-5-1 2 5Z" fill="#fff" fill-rule="evenodd"/>
</svg>
